<?xml version="1.0" encoding="UTF-8"?>
<svg id="Layer_1" data-name="Layer 1" xmlns="http://www.w3.org/2000/svg" viewBox="0 0 1385.98 554.18">
  <defs>
    <style>
      .cls-1 {
        letter-spacing: -.02em;
      }

      .cls-2 {
        letter-spacing: 0em;
      }

      .cls-3 {
        fill: #8979ec;
      }

      .cls-4 {
        fill: #696782;
        font-family: PTSerif-Bold, 'PT Serif';
        font-size: 250.2px;
        font-weight: 700;
      }

      .cls-5 {
        letter-spacing: -.01em;
      }

      .cls-6 {
        letter-spacing: 0em;
      }
    </style>
  </defs>
  <g id="SvgjsG1086">
    <g>
      <path class="cls-3" d="M155.61,1.07S36.5,120.7,86.85,397.58c0,0,46.17-64.98,51.73-133.39,0,0-22.11,18.13-28.04,17.83-5.93-.3,20.34-14.75,22.66-32.53,2.32-17.78,2.27-188.14,22.41-248.42Z"/>
      <path class="cls-3" d="M154.99,0S82.54,80.68,62.71,231.44c0,0-20.52-31.43-24.8-69.49,0,0-12.17,40.19,24.66,73.8,0,0-7.22,91.22,7.96,173.21,0,0-133.44-146.27-33.23-260.63,0,0-.67-57.66,48.82-97.25,0,0,.62,12.72,4.01,12.48,0,0,1.06-13.6,7.58-22.2C104.24,32.75,145.96,3.46,154.99,0Z"/>
      <path class="cls-3" d="M70.77,412.58s-42.6-35.16-47.28-60.32c0,0-12.39,42.92,30.29,68.02,0,0,4.21,3.26-1.41,5.36-5.63,2.11-32.69,4.33-37.08-8.54,0,0-9.98,16.45,41.29,32.8,0,0,27.63,11.7-7.05,5.76,0,0-26.05-5.33,.73,6.55,26.79,11.87,33.84,28.83,33.84,28.83,0,0-13.41-76.97-13.33-78.45Z"/>
      <path class="cls-3" d="M115.09,363.23s10.47-4.87-2.31,33.02c-15.3,45.37,4.73,18.42,10.34,5.92,5.6-12.51,5.85-2.71,5.85-2.71,2.03,17.56-10.65,36.01-11.97,37.79-1.32,1.77-18.83,19.11-18.83,19.11l-10.8-56.33c13.16-9.59,28.71-37.39,28.71-37.39"/>
      <path class="cls-3" d="M62.5,294.04s2.05,125.82,41.28,259.88c0,0,14.56-8.02,8.94-27.47-34.87-120.76-40.45-231.54-40.45-231.54-.06-1.09-.13-2.18-.18-3.26"/>
      <path class="cls-3" d="M62.5,294.04c.86-110.95,28.03-167.14,28.03-167.14,0,0-20.75,58.97-18.43,164.74"/>
    </g>
  </g>
  <text class="cls-4" transform="translate(269.12 260.87)"><tspan x="0" y="0">Kids Li</tspan><tspan class="cls-5" x="820.13" y="0">f</tspan><tspan class="cls-2" x="909.45" y="0">e </tspan><tspan class="cls-1" x="0" y="225">C</tspan><tspan class="cls-6" x="157.87" y="225">oaching</tspan></text>
</svg>