<svg width="108" height="34" viewBox="0 0 108 34" fill="none" xmlns="http://www.w3.org/2000/svg">
<path d="M22.3 0.1C21.9 0 21.4 0 21 0H13C12.6 0 12.1 0 11.7 0.1C5.1 0.7 0 6.3 0 13V21C0 27.9 5.4 33.6 12.3 34H13H21H21.7C28.6 33.6 34 27.9 34 21V13C34 6.3 28.9 0.7 22.3 0.1ZM30.6 21C30.6 26.3 26.3 30.6 21 30.6H13C7.7 30.6 3.4 26.3 3.4 21V13C3.4 7.7 7.7 3.4 13 3.4H21C26.3 3.4 30.6 7.7 30.6 13V21Z" fill="#1F2022"/>
<path d="M24.5 18.7008C24.2 18.5008 23.8 18.3008 23.5 18.3008C22.9 18.3008 22.4 18.6008 22 19.0008C20.8 20.5008 18.9 21.4008 17 21.5008C15 21.4008 13.2 20.5008 12 19.0008C11.4 18.2008 10.3 18.1008 9.50001 18.7008C8.80001 19.3008 8.60001 20.3008 9.10001 21.1008C11 23.5008 13.9 24.9008 16.9 25.0008C20 24.9008 22.8 23.5008 24.7 21.1008C25 20.7008 25.1 20.3008 25 19.8008C25.1 19.4008 24.9 18.9008 24.5 18.7008Z" fill="#1F2022"/>
<path opacity="0.999" d="M46.8 25.0008C45.1 25.1008 43.4 24.7008 41.9 23.8008C41.3 23.5008 41 22.9008 41 22.3008C41 22.0008 41.1 21.7008 41.3 21.4008C41.5 21.2008 41.8 21.0008 42.1 21.1008C42.6 21.1008 43 21.3008 43.4 21.5008C43.9 21.8008 44.5 22.0008 45 22.1008C45.6 22.3008 46.2 22.3008 46.9 22.3008C47.5 22.3008 48.2 22.2008 48.7 21.9008C49.1 21.7008 49.4 21.3008 49.4 20.8008C49.4 20.5008 49.3 20.3008 49.1 20.0008C48.8 19.8008 48.5 19.6008 48.2 19.5008C47.5 19.3008 46.8 19.1008 46.1 19.0008C44.8 18.8008 43.6 18.3008 42.6 17.6008C41.9 17.0008 41.5 16.0008 41.5 15.1008C41.5 14.3008 41.7 13.5008 42.2 12.9008C42.7 12.2008 43.4 11.7008 44.2 11.4008C45.1 11.0008 46.1 10.8008 47.1 10.9008C47.9 10.9008 48.6 11.0008 49.3 11.2008C50 11.4008 50.6 11.7008 51.2 12.0008C51.7 12.3008 52.1 12.9008 52.1 13.5008C52.1 13.8008 52 14.2008 51.8 14.4008C51.6 14.6008 51.3 14.8008 51 14.8008C50.8 14.8008 50.6 14.8008 50.4 14.7008C50.1 14.6008 49.9 14.5008 49.7 14.3008C49.3 14.1008 48.8 13.9008 48.3 13.7008C47.8 13.5008 47.3 13.5008 46.9 13.5008C46.3 13.5008 45.8 13.6008 45.3 13.9008C44.9 14.1008 44.7 14.6008 44.7 15.0008C44.7 15.4008 44.9 15.9008 45.3 16.1008C46 16.5008 46.8 16.7008 47.7 16.8008C48.7 17.0008 49.7 17.3008 50.6 17.7008C51.2 18.0008 51.7 18.4008 52.1 18.9008C52.4 19.5008 52.6 20.1008 52.6 20.8008C52.6 22.0008 52 23.2008 51 23.8008C49.7 24.6008 48.3 25.0008 46.8 25.0008ZM72 10.8008C73.3 10.7008 74.5 11.2008 75.4 12.1008C76.3 13.3008 76.7 14.8008 76.6 16.4008V23.2008C76.6 23.7008 76.5 24.1008 76.1 24.4008C75.7 24.7008 75.3 24.9008 74.8 24.8008C74.3 24.8008 73.9 24.7008 73.6 24.4008C73.3 24.1008 73.1 23.6008 73.1 23.2008V16.4008C73.2 15.6008 73 14.9008 72.6 14.2008C72.2 13.7008 71.6 13.5008 70.9 13.5008C70.1 13.5008 69.3 13.8008 68.7 14.4008C68.1 15.1008 67.8 16.0008 67.9 16.9008V23.1008C67.9 23.6008 67.8 24.0008 67.4 24.3008C67.1 24.6008 66.6 24.7008 66.2 24.7008C65.7 24.7008 65.3 24.6008 65 24.3008C64.7 24.0008 64.5 23.5008 64.5 23.1008V16.3008C64.6 15.5008 64.4 14.8008 64 14.1008C63.6 13.6008 63 13.4008 62.3 13.4008C61.5 13.4008 60.7 13.7008 60.1 14.3008C59.5 15.0008 59.3 15.9008 59.3 16.8008V23.0008C59.3 23.5008 59.1 23.9008 58.8 24.2008C58.5 24.5008 58 24.6008 57.6 24.6008C57.1 24.6008 56.7 24.5008 56.4 24.2008C56.1 23.9008 55.9 23.4008 55.9 23.0008V12.5008C55.9 12.0008 56.1 11.6008 56.4 11.3008C56.8 11.0008 57.2 10.9008 57.6 10.9008C58 10.9008 58.5 11.0008 58.8 11.3008C59.1 11.6008 59.3 12.0008 59.3 12.5008V13.2008C59.7 12.5008 60.3 11.9008 61 11.5008C61.8 11.1008 62.6 10.9008 63.5 10.9008C65.3 10.7008 67 11.8008 67.6 13.5008C68 12.7008 68.6 12.1008 69.4 11.6008C70.2 11.1008 71.1 10.8008 72 10.8008ZM82.4 24.9008C81.9 24.9008 81.5 24.8008 81.2 24.5008C80.9 24.2008 80.7 23.7008 80.7 23.3008V12.5008C80.7 12.0008 80.8 11.6008 81.2 11.3008C81.5 11.0008 82 10.9008 82.4 10.9008C82.9 10.9008 83.3 11.0008 83.6 11.3008C83.9 11.6008 84.1 12.1008 84.1 12.5008V23.2008C84.1 23.7008 83.9 24.1008 83.6 24.4008C83.3 24.8008 82.9 24.9008 82.4 24.9008ZM82.4 8.40078C81.9 8.40078 81.3 8.20078 80.9 7.90078C80.5 7.60078 80.3 7.10078 80.3 6.60078C80.3 6.10078 80.5 5.60078 80.9 5.30078C81.3 4.90078 81.9 4.80078 82.4 4.80078C82.9 4.80078 83.5 5.00078 83.9 5.30078C84.3 5.60078 84.5 6.10078 84.5 6.60078C84.5 7.10078 84.3 7.60078 83.9 7.90078C83.5 8.30078 83 8.40078 82.4 8.40078ZM90 24.9008C89.5 24.9008 89.1 24.8008 88.8 24.5008C88.5 24.2008 88.3 23.7008 88.3 23.3008V6.70078C88.3 6.20078 88.4 5.80078 88.8 5.50078C89.2 5.20078 89.6 5.00078 90 5.00078C90.5 5.00078 90.9 5.10078 91.2 5.40078C91.5 5.70078 91.7 6.20078 91.7 6.60078V23.2008C91.7 23.7008 91.5 24.1008 91.2 24.4008C90.9 24.8008 90.5 24.9008 90 24.9008ZM106.7 21.0008C107 21.0008 107.3 21.1008 107.5 21.4008C107.7 21.7008 107.8 22.0008 107.8 22.4008C107.8 23.0008 107.4 23.6008 106.8 23.8008C106.1 24.2008 105.4 24.5008 104.7 24.6008C104 24.8008 103.2 24.9008 102.4 24.9008C100.5 25.0008 98.6 24.3008 97.2 23.0008C95.9 21.6008 95.2 19.7008 95.3 17.8008C95.3 16.5008 95.6 15.3008 96.1 14.1008C96.6 13.1008 97.4 12.2008 98.4 11.6008C99.4 11.0008 100.6 10.7008 101.8 10.7008C102.9 10.7008 104 11.0008 105 11.5008C105.9 12.0008 106.6 12.8008 107.1 13.8008C107.6 14.9008 107.9 16.1008 107.9 17.3008C107.9 18.1008 107.5 18.5008 106.8 18.5008H98.6C98.6 19.5008 99 20.5008 99.7 21.3008C100.4 21.9008 101.4 22.3008 102.4 22.2008C102.9 22.2008 103.5 22.1008 104 22.0008C104.5 21.8008 105 21.6008 105.5 21.4008C105.8 21.2008 106.2 21.1008 106.7 21.0008ZM101.9 13.3008C101.1 13.3008 100.2 13.6008 99.6 14.2008C99 14.9008 98.6 15.8008 98.6 16.8008H104.9C104.9 15.9008 104.6 15.0008 104.1 14.2008C103.5 13.5008 102.7 13.2008 101.9 13.3008Z" fill="#1F2022"/>
</svg>
