<svg width="93" height="20" viewBox="0 0 93 20" fill="none" xmlns="http://www.w3.org/2000/svg">
<path d="M57.7822 19.3343C56.0698 19.3859 54.3978 18.8079 53.0821 17.7106C52.4405 17.1339 51.9369 16.4207 51.6084 15.6231C51.2799 14.8255 51.1348 13.9638 51.1841 13.1026V0.827015C51.1736 0.747122 51.1815 0.665904 51.2073 0.589544C51.233 0.513184 51.276 0.44352 51.3328 0.386365C51.3896 0.32921 51.4588 0.285704 51.535 0.259485C51.6112 0.233267 51.6924 0.224525 51.7723 0.234624H54.8713C54.9512 0.224525 55.0324 0.233267 55.1086 0.259485C55.1848 0.285704 55.2539 0.32921 55.3107 0.386365C55.3675 0.44352 55.4106 0.513184 55.4363 0.589544C55.4621 0.665904 55.4699 0.747122 55.4594 0.827015V11.8878C55.4096 12.8898 55.7316 13.8752 56.3636 14.6543C56.6821 15.0022 57.0737 15.2748 57.5102 15.4533C57.9468 15.6318 58.4174 15.7115 58.8883 15.6865C59.3783 15.7078 59.8674 15.6268 60.3245 15.449C60.7816 15.2713 61.1969 15.001 61.5439 14.6543C61.8839 14.2815 62.1469 13.8448 62.3179 13.3701C62.4889 12.8954 62.5645 12.3918 62.5403 11.8878V0.827015C62.5297 0.747122 62.5376 0.665904 62.5633 0.589544C62.5891 0.513184 62.6321 0.44352 62.6889 0.386365C62.7457 0.32921 62.8149 0.285704 62.8911 0.259485C62.9673 0.233267 63.0485 0.224525 63.1285 0.234624H66.1896C66.2697 0.224081 66.3513 0.232607 66.4278 0.258628C66.5043 0.284649 66.5739 0.32744 66.631 0.38465C66.6881 0.441861 66.7313 0.512103 66.7572 0.588687C66.7831 0.665271 66.791 0.746873 66.7804 0.827015V18.4864C66.7904 18.5663 66.7821 18.6478 66.7559 18.7239C66.7298 18.8 66.6865 18.8694 66.6295 18.9262C66.5724 18.983 66.5031 19.0256 66.4268 19.0514C66.3506 19.0772 66.2694 19.085 66.1896 19.0745H63.1285C63.0487 19.0856 62.9673 19.0788 62.8909 19.0531C62.8145 19.0275 62.7451 18.9841 62.6881 18.9271C62.6311 18.8701 62.5881 18.8012 62.5625 18.7248C62.5368 18.6484 62.5292 18.5663 62.5403 18.4864V17.528C62.5403 17.4314 62.5087 17.3674 62.4481 17.3428C62.4362 17.3378 62.4234 17.3353 62.4104 17.3351C62.363 17.3351 62.3226 17.3744 62.2822 17.4543C61.7328 18.0993 61.039 18.6057 60.2571 18.9322C59.4752 19.2588 58.6272 19.397 57.7822 19.3343ZM78.392 19.2992C77.0033 19.3255 75.6218 19.0934 74.3178 18.615C73.2646 18.2384 72.3296 17.5903 71.6078 16.7358C70.9884 15.9823 70.6495 15.0365 70.6491 14.0611V13.8759C70.6391 13.796 70.6475 13.7154 70.6737 13.6393C70.6998 13.5632 70.7431 13.4938 70.8001 13.437C70.8572 13.3802 70.9265 13.3376 71.0028 13.3118C71.079 13.286 71.1602 13.2774 71.24 13.2878H74.1897C74.5873 13.2878 74.7804 13.3755 74.7804 13.5467V13.8022C74.7984 14.1338 74.9009 14.4559 75.0782 14.7366C75.2556 15.0174 75.5018 15.2475 75.7935 15.4062C76.5598 15.8859 77.4526 16.1245 78.356 16.0903C79.1978 16.1243 80.031 15.9104 80.7526 15.4756C81.0259 15.3229 81.2547 15.101 81.4161 14.8326C81.5775 14.5643 81.6658 14.2584 81.6725 13.9453C81.6806 13.6836 81.6139 13.4256 81.4804 13.2004C81.3469 12.9751 81.1519 12.7917 80.9184 12.6731C80.1357 12.2868 79.3141 11.9854 78.4674 11.773L77.0629 11.3289C75.9759 11.0223 74.9158 10.6271 73.8929 10.1484C73.0505 9.74421 72.3075 9.16015 71.7167 8.43637C71.105 7.63995 70.7918 6.65357 70.8317 5.65016C70.8084 4.85349 70.9791 4.06349 71.3292 3.34746C71.6792 2.63144 72.1982 2.01118 72.8412 1.54028C74.3995 0.456594 76.2723 -0.0815211 78.1681 0.0100123C79.5199 -0.0179751 80.8634 0.226839 82.1186 0.729283C83.1601 1.14301 84.0702 1.83065 84.7522 2.71992C85.3738 3.5568 85.7037 4.57516 85.6914 5.61758C85.691 5.6793 85.6757 5.73963 85.6469 5.79418C85.618 5.84873 85.5763 5.89541 85.5256 5.93049C85.4023 6.01969 85.2527 6.06526 85.1007 6.05909H82.2634C81.871 6.05909 81.6725 5.98537 81.6725 5.83876V5.61758C81.6657 5.29233 81.5759 4.97414 81.4115 4.69342C81.2471 4.41269 81.0136 4.17864 80.7333 4.01358C79.9632 3.5464 79.0703 3.32155 78.1708 3.3689C77.3566 3.33519 76.5481 3.51949 75.8286 3.90213C75.5553 4.04352 75.3264 4.25771 75.1673 4.5211C75.0082 4.78449 74.925 5.08611 74.927 5.39383C74.9237 5.67612 75.0018 5.95382 75.1521 6.19283C75.3023 6.43183 75.5183 6.62214 75.7741 6.74149C76.6842 7.17486 77.6361 7.51457 78.615 7.75482L79.4621 7.97514C80.5919 8.29945 81.7004 8.69328 82.7814 9.15478C83.6512 9.53931 84.4201 10.1207 85.0278 10.8522C85.6649 11.6582 85.9925 12.665 85.9513 13.6916C85.9775 14.4945 85.8025 15.2918 85.442 16.0097C85.0815 16.7276 84.5471 17.3438 83.8875 17.8023C82.2596 18.8682 80.3364 19.3922 78.3929 19.2992H78.392ZM7.56452 19.2992C7.47674 19.2992 7.37314 19.2992 7.22654 19.2992V16.0886C7.33451 16.0886 7.43283 16.0954 7.52852 16.0954C8.37029 16.1294 9.20352 15.9156 9.92509 15.4808C10.1982 15.3277 10.4269 15.1061 10.5882 14.8378C10.7495 14.5695 10.8381 14.2635 10.8452 13.9505C10.8532 13.6887 10.7866 13.4308 10.653 13.2055C10.5195 12.9802 10.3246 12.7977 10.0911 12.6791C9.30605 12.2924 8.48201 11.9902 7.633 11.7781L6.23368 11.334C5.14574 11.0279 4.08466 10.6335 3.06105 10.1544C2.21964 9.75024 1.47779 9.16528 0.888337 8.44151C0.27665 7.6451 -0.0365235 6.65957 0.00339458 5.65616C-0.0199334 4.85949 0.150888 4.06863 0.500947 3.35261C0.851007 2.63658 1.36986 2.01632 2.01289 1.54543C3.5709 0.461255 5.44393 -0.0769086 7.33981 0.0151561C8.69002 -0.011762 10.0319 0.233025 11.2858 0.734427C12.3268 1.14907 13.2367 1.8374 13.9194 2.72592C14.5411 3.5628 14.871 4.58031 14.8587 5.62272C14.8582 5.68444 14.843 5.74478 14.8141 5.79933C14.7853 5.85388 14.7436 5.90055 14.6928 5.93564C14.5692 6.0241 14.4198 6.0696 14.2679 6.06423H11.4307C11.0383 6.06423 10.8398 5.99051 10.8398 5.84391V5.62272C10.833 5.29747 10.7432 4.97928 10.5788 4.69856C10.4144 4.41784 10.1809 4.18378 9.90055 4.01872C9.13044 3.55155 8.23758 3.32669 7.33809 3.37404C6.52382 3.33965 5.71509 3.524 4.99585 3.90728C4.72204 4.0483 4.49265 4.26197 4.33306 4.52539C4.17346 4.7888 4.08997 5.09184 4.09173 5.39983C4.08851 5.68243 4.16698 5.95977 4.31773 6.19883C4.46849 6.43788 4.68501 6.62776 4.94141 6.74664C5.85017 7.18015 6.80092 7.51986 7.77874 7.75996L8.62853 7.98029C9.75745 8.30445 10.8651 8.69828 11.9451 9.15992C12.8161 9.54375 13.586 10.1252 14.1942 10.8574C14.8313 11.6633 15.1589 12.6702 15.1177 13.6967C15.144 14.5 14.9685 15.2977 14.6073 16.0157C14.2462 16.7337 13.7109 17.3496 13.0504 17.8075C11.4248 18.8707 9.50466 19.3929 7.56452 19.2992ZM45.9854 19.0745H42.8865C42.8066 19.0856 42.7254 19.0788 42.649 19.0531C42.5726 19.0275 42.5031 18.9841 42.4462 18.9271C42.3892 18.8701 42.3461 18.8012 42.3204 18.7248C42.2948 18.6484 42.2873 18.5663 42.2984 18.4864V0.827015C42.2878 0.747122 42.2957 0.665904 42.3214 0.589544C42.3472 0.513184 42.3902 0.44352 42.447 0.386365C42.5038 0.32921 42.5729 0.285704 42.6491 0.259485C42.7253 0.233267 42.8065 0.224525 42.8865 0.234624H45.9854C46.0653 0.224525 46.1465 0.233267 46.2228 0.259485C46.299 0.285704 46.3681 0.32921 46.425 0.386365C46.4818 0.44352 46.5247 0.513184 46.5505 0.589544C46.5762 0.665904 46.5842 0.747122 46.5736 0.827015V18.4864C46.5854 18.5666 46.5784 18.6486 46.5531 18.7256C46.5278 18.8026 46.4849 18.873 46.4279 18.9305C46.3708 18.988 46.301 19.0315 46.2243 19.0574C46.1475 19.0833 46.0656 19.0909 45.9854 19.0797V19.0745ZM31.8272 19.0745H28.7282C28.6484 19.0856 28.5671 19.0788 28.4907 19.0531C28.4143 19.0275 28.3448 18.9841 28.2878 18.9271C28.2308 18.8701 28.1879 18.8012 28.1622 18.7248C28.1366 18.6484 28.129 18.5663 28.14 18.4864V0.827015C28.1295 0.747122 28.1374 0.665904 28.1632 0.589544C28.1889 0.513184 28.2319 0.44352 28.2887 0.386365C28.3455 0.32921 28.4147 0.285704 28.4909 0.259485C28.5671 0.233267 28.6483 0.224525 28.7282 0.234624H31.8272C31.9071 0.224525 31.9883 0.233267 32.0645 0.259485C32.1407 0.285704 32.2098 0.32921 32.2666 0.386365C32.3234 0.44352 32.3665 0.513184 32.3922 0.589544C32.418 0.665904 32.4258 0.747122 32.4153 0.827015V2.2647C32.4153 2.36302 32.4389 2.42272 32.489 2.4473C32.4981 2.45233 32.5084 2.45486 32.5189 2.45502C32.5601 2.45502 32.6005 2.41568 32.6391 2.33843C32.9822 1.78307 33.433 1.30232 33.9649 0.923889C34.4968 0.54546 35.0992 0.277213 35.7363 0.135177H38.0249C38.3154 0.201139 38.5984 0.296057 38.8694 0.419799C39.0063 0.479287 39.1161 0.588181 39.1776 0.724139C39.2391 0.860098 39.2478 1.01417 39.2021 1.15622L38.6113 4.2159C38.5867 4.4143 38.5183 4.53797 38.4068 4.58625C38.3417 4.61311 38.2717 4.62567 38.2014 4.62312C38.1037 4.62166 38.0065 4.6093 37.9116 4.58625C37.5277 4.47643 37.1292 4.42617 36.73 4.43709C36.4954 4.43417 36.2607 4.44675 36.0277 4.47481C35.0607 4.49817 34.1385 4.88666 33.4459 5.56186C33.1027 5.90674 32.8339 6.31847 32.6563 6.7715C32.4787 7.22453 32.3961 7.70919 32.4135 8.19547V18.4839C32.4258 18.5641 32.4192 18.6459 32.3941 18.7231C32.3691 18.8002 32.3265 18.871 32.2695 18.9288C32.2126 18.9866 32.1429 19.0304 32.0661 19.0565C31.9893 19.0827 31.9075 19.0907 31.8272 19.0797V19.0745ZM22.7201 19.0745H19.6212C19.5414 19.0856 19.46 19.0788 19.3836 19.0531C19.3072 19.0275 19.2378 18.9841 19.1808 18.9271C19.1238 18.8701 19.0808 18.8012 19.0552 18.7248C19.0295 18.6484 19.0219 18.5663 19.033 18.4864V0.827015C19.0224 0.747122 19.0304 0.665904 19.0561 0.589544C19.0819 0.513184 19.1248 0.44352 19.1816 0.386365C19.2384 0.32921 19.3076 0.285704 19.3838 0.259485C19.46 0.233267 19.5412 0.224525 19.6212 0.234624H22.7201C22.8001 0.224525 22.8813 0.233267 22.9575 0.259485C23.0337 0.285704 23.1029 0.32921 23.1597 0.386365C23.2165 0.44352 23.2594 0.513184 23.2852 0.589544C23.3109 0.665904 23.3188 0.747122 23.3082 0.827015V18.4864C23.32 18.5666 23.313 18.6486 23.2877 18.7256C23.2624 18.8026 23.2196 18.873 23.1625 18.9305C23.1054 18.988 23.0357 19.0315 22.9589 19.0574C22.8821 19.0833 22.8004 19.0909 22.7201 19.0797V19.0745Z" fill="#1F2022"/>
<path d="M90.4592 19.1151C90.1314 19.1269 89.8047 19.0725 89.4983 18.9553C89.192 18.8382 88.9124 18.6605 88.6762 18.433C88.448 18.2128 88.2682 17.9475 88.148 17.654C88.0279 17.3605 87.9701 17.0452 87.9783 16.7282C87.9774 16.4132 88.0448 16.1017 88.1759 15.8153C88.307 15.5288 88.4987 15.2742 88.7377 15.069C89.199 14.622 89.8159 14.3718 90.4583 14.3711C91.1149 14.3692 91.7473 14.619 92.2254 15.069C92.4683 15.2719 92.6636 15.5257 92.7975 15.8124C92.9315 16.0991 93.0008 16.4117 93.0006 16.7282C93.0049 17.0453 92.9422 17.3597 92.8167 17.6509C92.6911 17.9421 92.5055 18.2035 92.272 18.4181C92.0309 18.6484 91.7466 18.8286 91.4354 18.9482C91.1242 19.0679 90.7924 19.1246 90.4592 19.1151Z" fill="#1F2022"/>
</svg>
