<svg width="94" height="36" viewBox="0 0 94 36" fill="none" xmlns="http://www.w3.org/2000/svg">
<path d="M22.5516 3.04275C22.7459 3.49997 22.8333 3.9955 22.8072 4.49161C22.7812 4.98773 22.6422 5.47135 22.401 5.90567C21.8401 6.86029 20.9514 7.57852 19.9004 7.92659C18.3639 8.51587 16.6834 8.61822 15.0867 8.21976C13.4911 7.86768 12.0169 7.09969 10.814 5.99375L11.2135 5.55864C11.9123 5.98266 12.6807 6.27981 13.483 6.4364C14.4459 6.60903 15.4329 6.59591 16.3908 6.39773L16.2654 5.4558C16.0991 4.53966 16.2222 3.59447 16.6177 2.75153C16.9906 2.00106 17.6384 1.42318 18.4265 1.13804C18.8196 0.970621 19.244 0.889612 19.6712 0.900499C20.0983 0.911385 20.5181 1.01391 20.9021 1.20114C21.672 1.57512 22.2643 2.23644 22.5516 3.04275Z" fill="#1F2022"/>
<path d="M5.92038 28.2318C4.84768 28.2458 3.77851 28.1059 2.74552 27.8164C1.84842 27.5563 0.977951 27.2118 0.145761 26.7877L0.182045 22.4935H0.544886L1.76948 24.6587C2.19186 25.492 2.78901 26.2244 3.52018 26.8058C4.23414 27.2996 5.08927 27.548 5.95666 27.5134C6.94781 27.5606 7.92798 27.2887 8.75326 26.7378C9.08988 26.5082 9.36368 26.198 9.54969 25.8355C9.73571 25.473 9.82801 25.0697 9.8182 24.6624C9.83239 24.3017 9.77241 23.942 9.64197 23.6054C9.51153 23.2688 9.31341 22.9626 9.05986 22.7057C8.24002 22.0391 7.27791 21.5698 6.24784 21.3342L4.72845 20.8698C3.41072 20.5253 2.21259 19.8263 1.26422 18.8487C0.423019 17.9367 -0.0298843 16.7328 0.00153166 15.4925C-0.00478236 14.7217 0.160331 13.9592 0.484923 13.2602C0.809515 12.5611 1.28547 11.9429 1.87833 11.4504C3.40453 10.2525 5.31977 9.66128 7.25563 9.79041C8.1489 9.78511 9.03951 9.88806 9.908 10.097C10.7431 10.3035 11.5493 10.6128 12.3082 11.0177L12.0914 14.9183H11.7286L10.4659 12.6804C10.1322 12.0357 9.67187 11.465 9.11247 11.0023C8.51157 10.636 7.81159 10.4658 7.10959 10.5152C6.28967 10.5158 5.48749 10.754 4.80011 11.201C4.46073 11.398 4.18091 11.683 3.99025 12.026C3.79959 12.369 3.70519 12.7572 3.71703 13.1494C3.70411 13.5237 3.78095 13.8956 3.94112 14.2341C4.1013 14.5726 4.34015 14.8678 4.63773 15.0951C5.4665 15.6847 6.38559 16.1357 7.35904 16.4304L8.98276 16.8994C10.4111 17.2433 11.7054 18.0031 12.7019 19.0828C13.4548 20.0298 13.8507 21.2114 13.8203 22.4209C13.8429 23.2403 13.6657 24.0529 13.3041 24.7885C12.9425 25.5242 12.4074 26.1608 11.7449 26.6435C10.0306 27.7985 7.98366 28.3567 5.92038 28.2318ZM15.376 27.6948V27.332L15.8813 27.1877C16.2801 27.0992 16.6329 26.8683 16.8736 26.5383C17.0704 26.1863 17.1647 25.7863 17.1458 25.3835V14.0883C17.173 13.6905 17.078 13.294 16.8736 12.9517C16.6208 12.6582 16.2663 12.4712 15.8813 12.4283L15.376 12.3203V11.9575L21.9797 9.82488L22.3426 10.1877L22.2346 15.3129V25.418C22.2162 25.8205 22.3107 26.2202 22.5077 26.5718C22.7381 26.896 23.0775 27.1265 23.4638 27.2213L23.8266 27.3292V27.6921L15.376 27.6948ZM33.2759 21.4467C31.8242 21.49 30.3813 21.2073 29.0533 20.6194V21.844C29.0256 22.1693 29.1278 22.4923 29.3375 22.7425C29.5473 22.9927 29.8475 23.1497 30.1727 23.1792L36.9578 24.4419C38.0032 24.6347 39.0297 24.9185 40.0256 25.2901C40.8712 25.5923 41.6279 26.1008 42.2272 26.7696C42.8152 27.5104 43.1105 28.4414 43.0572 29.3856C43.054 30.5737 42.6467 31.7253 41.9024 32.6512C41.0002 33.7457 39.823 34.5803 38.4917 35.0696C36.6973 35.7334 34.792 36.046 32.8795 35.9903C31.3294 36.0427 29.7812 35.8417 28.2959 35.3952C27.3635 35.1297 26.5291 34.5971 25.8957 33.8631C25.4476 33.2978 25.2 32.5997 25.1918 31.8784C25.2165 30.9372 25.5248 30.0254 26.0762 29.2623C26.6412 28.4075 27.3864 27.6867 28.2596 27.1505C27.6233 26.9391 27.0602 26.5512 26.6359 26.0321C26.3104 25.6074 26.1329 25.0877 26.1306 24.5526C26.1297 24.0751 26.2609 23.6067 26.5098 23.1992C26.783 22.7487 27.0905 22.3198 27.4296 21.9166L28.6206 20.4008C27.7774 19.9357 27.0829 19.2416 26.6175 18.3986C26.152 17.5556 25.9345 16.5981 25.99 15.6367C25.9647 14.8387 26.1185 14.0452 26.4402 13.3145C26.7618 12.5838 27.2431 11.9344 27.8487 11.4141C29.0878 10.3316 30.9105 9.79041 33.3167 9.79041C34.409 9.77161 35.498 9.91748 36.5469 10.2231C37.3877 10.4665 38.1675 10.8848 38.8355 11.4504C39.5837 11.3362 40.3163 11.1365 41.0189 10.8554C41.6976 10.583 42.3259 10.1988 42.8776 9.71875L43.3828 10.0816V11.9221H39.3009C40.1915 12.9512 40.6561 14.2814 40.5998 15.6412C40.6183 16.429 40.4614 17.2111 40.1406 17.9308C39.8198 18.6506 39.343 19.2901 38.7448 19.803C37.5051 20.8988 35.6821 21.4467 33.2759 21.4467ZM33.2396 20.721C33.6685 20.7452 34.0954 20.6459 34.4696 20.435C34.8439 20.2241 35.1499 19.9103 35.3513 19.5309C35.8838 18.2789 36.1125 16.9187 36.019 15.5614C36.118 14.2212 35.8888 12.8771 35.3513 11.6454C35.1517 11.2843 34.8548 10.9863 34.4943 10.7854C34.1339 10.5845 33.7243 10.4887 33.3122 10.5088C32.8992 10.4953 32.4908 10.5981 32.1334 10.8054C31.7761 11.0128 31.4842 11.3165 31.2911 11.6817C30.7432 12.9234 30.5078 14.2803 30.6054 15.634C30.5136 16.9766 30.7309 18.3225 31.2403 19.5681C31.4262 19.9337 31.714 20.2376 32.069 20.443C32.424 20.6484 32.8309 20.7466 33.2405 20.7255L33.2396 20.721ZM27.8596 30.7218C27.8174 31.3224 27.9143 31.9247 28.1427 32.4818C28.3712 33.0389 28.725 33.5358 29.1767 33.9339C30.4049 34.7567 31.876 35.1386 33.3494 35.0169C34.9139 35.1182 36.4757 34.7815 37.8595 34.0445C38.3353 33.7649 38.7274 33.3627 38.9948 32.8799C39.2622 32.3971 39.3952 31.8513 39.3798 31.2996C39.3902 30.9902 39.3287 30.6826 39.2003 30.4009C39.0719 30.1192 38.88 29.871 38.6396 29.6759C37.89 29.1649 37.0279 28.8428 36.1269 28.7371L29.5949 27.5134L29.017 27.3692C28.6671 27.8762 28.3878 28.4286 28.187 29.011C27.9819 29.5587 27.8712 30.1371 27.8596 30.7218ZM44.572 27.6948V27.332L45.0773 27.1877C45.4632 27.1145 45.8059 26.8948 46.0334 26.5745C46.2316 26.2218 46.3371 25.8245 46.34 25.4198V14.1209C46.3703 13.7144 46.2844 13.3076 46.0923 12.948C45.8494 12.6518 45.4992 12.4637 45.1181 12.4246L44.5738 12.2804V11.9176L50.7421 9.82397L51.105 10.1868L51.3934 12.6405C52.1977 11.8384 53.1144 11.1576 54.1148 10.6195C55.0923 10.0777 56.191 9.79221 57.3087 9.7895C58.2843 9.74214 59.2518 9.98726 60.0871 10.4934C60.837 11.0321 61.3938 11.7976 61.6755 12.6768C62.5729 11.815 63.6025 11.1024 64.7251 10.566C65.7188 10.073 66.81 9.808 67.9191 9.79041C68.5978 9.73259 69.2814 9.81141 69.9292 10.0222C70.577 10.233 71.176 10.5715 71.6908 11.0177C72.5861 12.0957 73.0205 13.4831 72.9 14.8793V25.4534C72.8628 25.8559 72.9744 26.2581 73.2138 26.5839C73.4532 26.9097 73.8036 27.1365 74.1989 27.2213L74.599 27.332V27.6948H66.2627V27.332L66.6255 27.224C67.0118 27.1292 67.3511 26.8987 67.5816 26.5745C67.7784 26.2226 67.8726 25.8226 67.8537 25.4198V14.3731C67.9339 13.6379 67.7401 12.8989 67.3095 12.2976C67.0732 12.0925 66.798 11.9372 66.5003 11.8411C66.2026 11.7449 65.8885 11.7098 65.5769 11.738C64.9461 11.7393 64.3236 11.8812 63.7545 12.1534C63.0828 12.4848 62.4578 12.9036 61.8959 13.3989C62.0212 13.8097 62.1 14.2332 62.1308 14.6616C62.1671 15.1187 62.1853 15.5998 62.1853 16.1048V25.4479C62.1575 25.8487 62.2728 26.2463 62.5107 26.57C62.7485 26.8937 63.0935 27.1226 63.4842 27.2159L63.8081 27.332V27.6948H55.4355V27.332L55.9408 27.1877C56.3235 27.0935 56.6615 26.869 56.8968 26.5528C57.0952 26.208 57.1897 25.8133 57.169 25.4162V14.4094C57.2357 13.6839 57.0509 12.9575 56.6456 12.3521C56.4104 12.1261 56.1287 11.9541 55.8203 11.8482C55.5118 11.7423 55.1839 11.705 54.8595 11.7389C54.2812 11.7451 53.7125 11.8875 53.1995 12.1543C52.5727 12.4817 51.9904 12.8881 51.4669 13.3635V25.4534C51.4271 25.8511 51.5332 26.2497 51.7655 26.575C51.9978 26.9003 52.3405 27.13 52.7296 27.2213L53.0534 27.332V27.6948H44.572ZM81.0584 28.2391C79.7803 28.2793 78.5307 27.8563 77.5398 27.048C77.0558 26.6223 76.676 26.0913 76.4294 25.4957C76.1828 24.9002 76.0761 24.2561 76.1174 23.6128C76.1488 22.9948 76.3212 22.3922 76.6216 21.8511C76.9219 21.3101 77.3421 20.845 77.85 20.4915C79.4683 19.3494 81.3375 18.613 83.2999 18.3444C83.6851 18.2724 84.1181 18.1941 84.5989 18.1095C85.0796 18.0248 85.5849 17.9341 86.1146 17.8373V14.9863C86.2041 13.8058 85.9996 12.6215 85.5196 11.5393C85.3309 11.2184 85.057 10.9561 84.7282 10.7816C84.3995 10.607 84.0288 10.5271 83.6573 10.5506C83.4017 10.5382 83.1465 10.5819 82.9096 10.6786C82.6727 10.7753 82.4597 10.9226 82.2858 11.1102C81.8796 11.6738 81.6532 12.347 81.6363 13.0415L81.5637 13.4388C81.5903 14.2626 81.3217 15.0688 80.8063 15.712C80.591 15.9461 80.3285 16.1319 80.0361 16.257C79.7437 16.3821 79.428 16.4437 79.11 16.4377C78.5367 16.457 77.979 16.2494 77.5579 15.8598C77.3515 15.6594 77.1901 15.4173 77.0844 15.1498C76.9787 14.8822 76.9311 14.5952 76.9447 14.3078C76.9349 13.8442 77.0212 13.3836 77.1982 12.955C77.3753 12.5265 77.6392 12.1393 77.9734 11.8178C78.7424 11.0969 79.6769 10.5763 80.6947 10.302C81.8907 9.95608 83.1307 9.78588 84.3757 9.79676C86.1681 9.68114 87.9388 10.2414 89.3385 11.367C90.5056 12.4138 91.0892 14.1161 91.0892 16.4739V24.4501C91.0892 25.5326 91.5944 26.0738 92.6049 26.0738H93.3987L93.7234 26.3623C93.3138 26.8969 92.8065 27.3491 92.2285 27.6948C91.5176 28.0451 90.7285 28.2066 89.9372 28.1638C89.0407 28.2133 88.1546 27.9515 87.429 27.4227C86.8126 26.925 86.3857 26.2308 86.2199 25.4561C85.5465 26.183 84.803 26.8418 84.0002 27.4227C83.1294 27.9957 82.0998 28.2789 81.0584 28.2318V28.2391ZM83.26 26.0375C83.7329 26.0397 84.1985 25.9217 84.6134 25.6946C85.1453 25.3881 85.6468 25.0315 86.111 24.6297V18.5666L85.3853 18.7109C85.1434 18.7592 84.8668 18.8073 84.5553 18.8551C83.5525 19.0861 82.634 19.5922 81.9029 20.3164C81.565 20.6874 81.3037 21.1216 81.134 21.5939C80.9643 22.0662 80.8896 22.5673 80.9142 23.0686C80.8531 23.8687 81.0982 24.6621 81.6 25.2883C81.8068 25.5243 82.0623 25.7128 82.3488 25.8409C82.6353 25.9689 82.9462 26.0336 83.26 26.0303V26.0375Z" fill="#1F2022"/>
</svg>
