<svg width="110" height="22" viewBox="0 0 110 22" fill="none" xmlns="http://www.w3.org/2000/svg">
<path d="M32.818 20.9831C32.1439 21.0135 31.4715 20.892 30.8507 20.6277C30.2298 20.3633 29.6763 19.9628 29.231 19.4558C28.2677 18.1958 27.7959 16.6282 27.9038 15.0457C27.9135 13.5357 28.1558 12.0361 28.6221 10.5998C29.0494 9.17827 29.8133 7.88078 30.8489 6.81741C31.3383 6.31753 31.9255 5.92392 32.5739 5.66114C33.2222 5.39836 33.9178 5.27205 34.6171 5.29011C35.4937 5.2616 36.3645 5.44248 37.1573 5.81777C37.853 6.17941 38.443 6.71542 38.8696 7.37339H39.0404L39.9249 5.63182H43.2362L42.5755 9.28582L42.1186 11.7693C41.529 15.0417 41.2341 16.7924 41.2341 17.0214C41.2285 17.1281 41.2475 17.2346 41.2895 17.3328C41.3316 17.431 41.3956 17.5183 41.4767 17.5878C41.6417 17.7222 41.8493 17.7932 42.062 17.7879H42.8898L42.4046 20.5253C41.6675 20.8482 40.8681 21.0042 40.0637 20.9822C39.3633 21.025 38.6704 20.8176 38.1088 20.397C37.8709 20.182 37.6867 19.9143 37.571 19.6153C37.4553 19.3163 37.4112 18.9943 37.4423 18.6752H37.2715C36.7626 19.3968 36.0867 19.9846 35.3015 20.3885C34.5335 20.7834 33.6816 20.9874 32.818 20.9831ZM34.3283 17.585C34.7508 17.5947 35.17 17.5078 35.5538 17.3307C35.9376 17.1537 36.2759 16.8913 36.5428 16.5636C37.1386 15.849 37.5678 15.0106 37.7991 14.1094C38.044 13.2435 38.1735 12.3491 38.1843 11.4493C38.1843 9.52747 37.3851 8.56653 35.7867 8.56653C35.3516 8.55063 34.9188 8.63617 34.5225 8.81638C34.1262 8.9966 33.7772 9.26654 33.5033 9.60487C32.9187 10.3275 32.5085 11.175 32.3045 12.0818C32.083 12.9776 31.968 13.8964 31.9618 14.8192C31.9618 16.6668 32.7516 17.5906 34.3311 17.5906L34.3283 17.585ZM48.2892 0.0078125H52.1999L48.5742 20.6452H44.6607L48.2892 0.0078125ZM56.2239 0.0078125H60.1347L56.51 20.6452H52.5992L56.2239 0.0078125ZM64.0738 0.0078125H67.9845L67.3238 3.68919H63.4177L64.0738 0.0078125ZM63.1893 5.63087H67.1L64.4447 20.6452H60.534L63.1893 5.63087ZM74.8668 20.9831C73.191 21.0774 71.5218 20.707 70.0432 19.9127C69.5197 19.6256 69.0839 19.2018 68.7823 18.6865C68.4807 18.1711 68.3247 17.5836 68.3309 16.9865C68.3241 16.606 68.3921 16.2279 68.5311 15.8736H72.3276C72.2699 16.009 72.2407 16.1549 72.2417 16.3021C72.2321 16.5661 72.3017 16.8268 72.4417 17.0507C72.5817 17.2747 72.7856 17.4516 73.0271 17.5585C73.6364 17.8445 74.3045 17.9829 74.9772 17.9625C75.7168 17.9795 76.4531 17.8585 77.1483 17.6057C77.4099 17.5366 77.6413 17.383 77.8066 17.1687C77.9718 16.9545 78.0616 16.6916 78.062 16.4211C78.061 16.1868 77.9881 15.9584 77.853 15.767C77.7179 15.5755 77.5273 15.4302 77.3069 15.3506C76.5254 15.0171 75.719 14.745 74.8951 14.537C74.0043 14.3242 73.1273 14.0572 72.2691 13.7374C71.5952 13.4785 70.9897 13.0683 70.4992 12.5386C69.9902 11.9672 69.724 11.2199 69.7572 10.4554C69.7249 9.7048 69.8865 8.95857 70.2264 8.28862C70.5663 7.61867 71.0732 7.04761 71.698 6.63051C73.1751 5.68443 74.9076 5.21579 76.6603 5.28822C78.1983 5.22513 79.7281 5.54392 81.1129 6.21612C81.614 6.43171 82.0422 6.78746 82.3459 7.2406C82.6497 7.69373 82.8161 8.22497 82.8252 8.77042C82.8239 9.19705 82.7564 9.62089 82.625 10.0268H78.8314L78.8597 9.74363C78.8683 9.52558 78.8154 9.3095 78.7068 9.12017C78.5983 8.93084 78.4386 8.77593 78.2461 8.6732C77.7203 8.40886 77.1347 8.28589 76.547 8.31639C75.8583 8.28839 75.1717 8.41013 74.5345 8.6732C74.3206 8.74523 74.1337 8.88076 73.9988 9.06172C73.8639 9.24268 73.7873 9.46047 73.7794 9.68605C73.7888 9.90431 73.865 10.1144 73.9977 10.288C74.1304 10.4615 74.3132 10.5901 74.5213 10.6564C75.258 10.9596 76.0228 11.1891 76.8047 11.3417C77.7193 11.5393 78.6202 11.7959 79.5015 12.1101C80.2005 12.3669 80.8305 12.7821 81.3422 13.3231C81.8773 13.9213 82.1545 14.7067 82.1134 15.5083C82.1767 16.3253 82.0194 17.1443 81.6579 17.8798C81.2964 18.6152 80.744 19.24 80.0585 19.689C78.4863 20.6057 76.6852 21.0546 74.8668 20.9831ZM88.5681 20.9831C87.5725 21.08 86.5785 20.7828 85.7995 20.1553C85.521 19.87 85.3035 19.531 85.1603 19.1588C85.0172 18.7867 84.9514 18.3893 84.967 17.9908C85.0406 17.1092 85.1645 16.2324 85.3379 15.3648L86.4773 8.828H84.6838L85.2502 5.63087H87.0484L88.5039 1.40673H91.7294L90.9591 5.63087H93.5568L92.9905 8.828H90.3918L89.1637 15.7915C89.0827 16.1777 89.0257 16.5686 88.9929 16.962C88.9862 17.0784 89.0073 17.1947 89.0544 17.3014C89.1015 17.408 89.1733 17.502 89.2638 17.5755C89.4941 17.733 89.7707 17.8085 90.0492 17.7898H91.4188L90.9336 20.5272C90.5553 20.6565 90.1691 20.7615 89.7773 20.8416C89.379 20.9307 88.9725 20.9782 88.5643 20.9831H88.5681ZM100.985 20.9831C99.7807 21.0042 98.5899 20.7297 97.5167 20.1836C96.522 19.6748 95.6828 18.9076 95.087 17.9625C94.4828 16.995 94.1613 15.8778 94.1591 14.7371C94.1508 13.9049 94.2178 13.0737 94.3592 12.2536C94.6006 10.2765 95.5303 8.44753 96.9852 7.08738C98.5926 5.80859 100.615 5.16824 102.666 5.28917C103.884 5.26731 105.088 5.54169 106.176 6.08869C107.176 6.59644 108.02 7.36605 108.616 8.31544C109.221 9.28294 109.542 10.4002 109.544 11.5409C109.553 12.3731 109.486 13.2043 109.344 14.0244C109.102 16.004 108.167 17.8338 106.704 19.1897C105.08 20.4682 103.044 21.1064 100.981 20.9831H100.985ZM101.268 17.786C101.82 17.8197 102.372 17.7381 102.891 17.5465C103.409 17.3549 103.882 17.0574 104.279 16.6731C105.087 15.7062 105.562 14.5052 105.635 13.2475C105.713 12.6992 105.751 12.1458 105.749 11.5919C105.763 11.17 105.69 10.7497 105.535 10.357C105.381 9.96429 105.147 9.60744 104.849 9.30847C104.185 8.72621 103.319 8.4288 102.437 8.48063C101.886 8.44698 101.333 8.52855 100.815 8.72016C100.296 8.91176 99.8235 9.2092 99.4263 9.59354C98.6186 10.5604 98.1434 11.7614 98.0708 13.0191C97.9922 13.5675 97.954 14.1208 97.9566 14.6748C97.9426 15.0967 98.0152 15.5169 98.1699 15.9096C98.3246 16.3024 98.5582 16.6592 98.8561 16.9582C99.519 17.5419 100.385 17.841 101.267 17.7907L101.268 17.786Z" fill="#1F2022"/>
<path d="M16.0319 20.989C14.348 21.0518 12.6736 20.7089 11.1498 19.9894C9.90893 19.3503 8.94005 18.2852 8.4209 16.9895L12.3732 15.2905C12.9301 16.7366 14.2101 17.47 16.1792 17.47C17.4934 17.5139 18.7871 17.1358 19.8709 16.3911C20.8643 15.6756 21.5363 14.5981 21.7418 13.3912H25.8527C25.6271 14.9317 24.9975 16.3849 24.028 17.6031C23.1027 18.7277 21.9095 19.6015 20.5581 20.1442C19.1181 20.7155 17.581 21.0024 16.0319 20.989ZM26.7334 8.3421H22.4856C22.5409 8.06036 22.569 7.77398 22.5696 7.48688C22.5976 7.02953 22.5178 6.572 22.3367 6.15112C22.1555 5.73025 21.878 5.35781 21.5266 5.06379C20.722 4.47846 19.7413 4.18631 18.7476 4.23595C17.2997 4.18291 15.8847 4.6758 14.7831 5.61694L11.0073 3.87819C11.3028 3.55859 11.6181 3.25783 11.9512 2.97767C12.8619 2.23478 13.9028 1.66788 15.0209 1.30595C16.2703 0.904655 17.5761 0.707358 18.8883 0.721653C20.9328 0.626669 22.9569 1.16498 24.6841 2.26311C25.4023 2.76698 25.9807 3.44515 26.365 4.23391C26.7492 5.02268 26.9266 5.89616 26.8806 6.77232C26.8714 7.29824 26.8222 7.8227 26.7334 8.34115V8.3421Z" fill="#1F2022"/>
<path d="M1.29546 14.597L13.9179 10.0935L2.91338 5.58991L3.54771 1.97461L17.502 8.19047L16.7723 12.2183L0.661133 18.4672L1.29546 14.597Z" fill="#1F2022"/>
<path d="M1.29546 14.5973L13.9179 10.0938L16.9205 11.3256L16.7723 12.2186L0.661133 18.4665L1.29546 14.5973Z" fill="#1F2022"/>
</svg>
