<svg width="118" height="26" viewBox="0 0 118 26" fill="none" xmlns="http://www.w3.org/2000/svg">
<path d="M21.265 5.00261H21.212C19.9811 4.99633 18.7639 5.26104 17.6468 5.77795C16.5296 6.29486 15.54 7.05131 14.748 7.99361C13.9562 7.05094 12.9666 6.29412 11.8495 5.77686C10.7324 5.25959 9.51506 4.99457 8.284 5.00061H8.244C6.09169 4.97437 4.01648 5.80105 2.47177 7.30005C0.927059 8.79904 0.0384185 10.8485 0 13.0006C0.0386521 15.1597 0.932897 17.2151 2.48623 18.7152C4.03956 20.2152 6.1249 21.0373 8.284 21.0006C8.9198 21.0012 9.5537 20.9311 10.174 20.7916C10.224 20.7806 10.274 20.7626 10.322 20.7506C10.568 20.6906 10.812 20.6246 11.048 20.5436C11.191 20.4946 11.328 20.4326 11.468 20.3756C11.608 20.3186 11.745 20.2756 11.879 20.2076C12.106 20.1016 12.327 19.9806 12.544 19.8546C12.584 19.8316 12.627 19.8116 12.666 19.7886C13.4545 19.3116 14.1587 18.7075 14.75 18.0006C15.3417 18.707 16.0458 19.3111 16.834 19.7886C16.874 19.8116 16.916 19.8316 16.956 19.8546C17.173 19.9806 17.394 20.1016 17.621 20.2076C17.755 20.2706 17.895 20.3206 18.033 20.3756C18.171 20.4306 18.309 20.4946 18.452 20.5436C18.689 20.6246 18.932 20.6906 19.179 20.7506C19.228 20.7626 19.279 20.7806 19.326 20.7916C19.9463 20.9311 20.5802 21.0012 21.216 21.0006C23.3751 21.0373 25.4604 20.2152 27.0138 18.7152C28.5671 17.2151 29.4613 15.1597 29.5 13.0006C29.4616 10.8502 28.5741 8.80237 27.0313 7.30395C25.4885 5.80553 23.4156 4.97823 21.265 5.00261ZM21.212 18.0026C20.4207 18.0092 19.6377 17.841 18.9189 17.51C18.2001 17.179 17.5633 16.6933 17.054 16.0876L14.746 13.3146L12.439 16.0876C11.9295 16.6932 11.2925 17.1788 10.5735 17.5097C9.85456 17.8405 9.07141 18.0085 8.28 18.0016C6.917 18.0366 5.59567 17.5301 4.60532 16.5929C3.61496 15.6558 3.03629 14.3645 2.996 13.0016C3.03603 11.6387 3.61462 10.3471 4.60503 9.40997C5.59544 8.47279 6.91693 7.96635 8.28 8.00161C9.07133 7.99458 9.85444 8.16241 10.5734 8.4931C11.2923 8.8238 11.9294 9.30919 12.439 9.91461L14.746 12.6876L17.054 9.91461C17.5634 9.30914 18.2003 8.82363 18.919 8.49277C19.6378 8.16191 20.4208 7.99385 21.212 8.00061C22.5751 7.96535 23.8966 8.47179 24.887 9.40897C25.8774 10.3461 26.456 11.6377 26.496 13.0006C26.456 14.3636 25.8774 15.6553 24.887 16.5926C23.8966 17.5299 22.5752 18.0366 21.212 18.0016V18.0026Z" fill="#1F2022"/>
<path d="M38.9404 25.0294V6.07542H42.2074V8.34342C42.663 7.58272 43.3098 6.95456 44.0834 6.52142C44.9123 6.02876 45.8602 5.77217 46.8244 5.77942C47.6696 5.75558 48.5098 5.91584 49.2869 6.24911C50.0639 6.58237 50.7592 7.08066 51.3244 7.70942C52.5651 9.16886 53.1983 11.0488 53.0934 12.9614V13.1774C53.1947 15.1062 52.5716 17.0033 51.3464 18.4964C50.7859 19.1395 50.0894 19.6499 49.3073 19.9906C48.5252 20.3314 47.6771 20.4939 46.8244 20.4664C45.8443 20.4865 44.876 20.2489 44.0164 19.7774C43.2527 19.364 42.6246 18.739 42.2074 17.9774V25.0294H38.9404ZM46.0144 17.8744C46.5365 17.9063 47.0589 17.8155 47.5395 17.6092C48.0202 17.4029 48.4459 17.0869 48.7824 16.6864C49.4861 15.6772 49.8241 14.4579 49.7404 13.2304V13.0144C49.8248 11.7704 49.4553 10.5379 48.7004 9.54542C48.3674 9.15424 47.9504 8.84319 47.4805 8.63543C47.0106 8.42767 46.4999 8.32854 45.9864 8.34542C45.4566 8.32457 44.9288 8.42137 44.4408 8.62885C43.9529 8.83634 43.517 9.14937 43.1644 9.54542C42.3922 10.5302 42.0117 11.7659 42.0964 13.0144V13.2304C42.0077 14.4745 42.3788 15.7079 43.1394 16.6964C43.5021 17.0927 43.9479 17.4038 44.445 17.6075C44.942 17.8111 45.478 17.9023 46.0144 17.8744ZM56.0314 20.1964V6.07542H59.2964V8.72142C59.6869 7.83955 60.3332 7.09526 61.1516 6.58497C61.9699 6.07468 62.9227 5.82192 63.8864 5.85942V8.91042C62.67 8.8387 61.4627 9.16058 60.4434 9.82842C60.0296 10.2081 59.7104 10.6793 59.5112 11.2044C59.3121 11.7294 59.2385 12.2938 59.2964 12.8524V20.1964H56.0314ZM66.8314 20.1964V6.07542H70.0964V20.1964H66.8314ZM69.8014 3.21342C69.6189 3.38987 69.4033 3.52843 69.1669 3.62111C68.9306 3.71379 68.6782 3.75876 68.4244 3.75342C68.1706 3.75876 67.9183 3.71379 67.6819 3.62111C67.4456 3.52843 67.2299 3.38987 67.0474 3.21342C66.8648 3.04547 66.7199 2.84073 66.6221 2.61269C66.5244 2.38465 66.4761 2.13849 66.4804 1.89042C66.4742 1.63812 66.5216 1.38737 66.6193 1.15468C66.717 0.921996 66.8629 0.712649 67.0474 0.540424C67.2299 0.363979 67.4456 0.22542 67.6819 0.132738C67.9183 0.0400561 68.1706 -0.00491237 68.4244 0.00042512C68.6782 -0.00491237 68.9306 0.0400561 69.1669 0.132738C69.4033 0.22542 69.6189 0.363979 69.8014 0.540424C69.9859 0.712649 70.1318 0.921996 70.2295 1.15468C70.3273 1.38737 70.3746 1.63812 70.3684 1.89042C70.3727 2.13849 70.3244 2.38465 70.2267 2.61269C70.129 2.84073 69.984 3.04547 69.8014 3.21342ZM78.8964 20.4664C77.3792 20.555 75.8768 20.1267 74.6344 19.2514C74.1196 18.8349 73.7044 18.3084 73.4194 17.7106C73.1344 17.1127 72.9868 16.4587 72.9874 15.7964H76.0654C76.1032 16.4414 76.3828 17.0485 76.8484 17.4964C77.4338 17.9217 78.1523 18.1229 78.8734 18.0634C80.5654 18.0634 81.4114 17.4604 81.4114 16.2544C81.4237 16.0017 81.3659 15.7505 81.2445 15.5286C81.1231 15.3066 80.9428 15.1224 80.7234 14.9964C79.991 14.6322 79.2003 14.3993 78.3874 14.3084C76.9701 14.1786 75.6067 13.7008 74.4184 12.9174C74.0209 12.5525 73.712 12.1014 73.5154 11.5988C73.3189 11.0962 73.2399 10.5553 73.2844 10.0174C73.261 9.40734 73.3923 8.80125 73.6661 8.25556C73.9399 7.70987 74.3473 7.24232 74.8504 6.89642C75.9411 6.13516 77.2468 5.7427 78.5764 5.77642C81.9604 5.77642 83.8054 7.19842 84.1114 10.0424H81.0874C80.9956 9.48679 80.7127 8.98066 80.2874 8.61142C79.7831 8.2712 79.1793 8.10961 78.5724 8.15242C77.9877 8.11811 77.4081 8.27961 76.9254 8.61142C76.7358 8.75103 76.5827 8.93443 76.4793 9.146C76.3758 9.35756 76.3251 9.59101 76.3314 9.82642C76.3207 10.0543 76.373 10.2806 76.4826 10.4807C76.5921 10.6807 76.7547 10.8467 76.9524 10.9604C77.6755 11.3091 78.4507 11.5371 79.2474 11.6354C80.6684 11.7798 82.0411 12.2312 83.2704 12.9584C83.7161 13.3123 84.0659 13.7724 84.2876 14.2966C84.5093 14.8207 84.5959 15.3921 84.5394 15.9584C84.5753 16.5911 84.4611 17.2232 84.2061 17.8033C83.9512 18.3834 83.5627 18.895 83.0724 19.2964C81.8541 20.1501 80.381 20.5628 78.8964 20.4664ZM92.2114 20.4394C91.6373 20.4794 91.061 20.4044 90.5162 20.219C89.9713 20.0335 89.469 19.7413 89.0384 19.3594C88.6558 18.9436 88.3616 18.4545 88.1738 17.9216C87.9859 17.3887 87.9082 16.8232 87.9454 16.2594V8.53742H86.0554V6.08042H87.9454V2.98042H91.2124V6.08042H94.3124V8.53742H91.2124V15.9624C91.2124 17.1684 91.7524 17.7714 92.8324 17.7714C93.376 17.7867 93.9173 17.695 94.4254 17.5014V20.0884C93.7141 20.3358 92.9644 20.4546 92.2114 20.4394ZM97.4494 20.1964V6.07542H100.716V20.1964H97.4494ZM100.419 3.21342C100.237 3.38987 100.021 3.52843 99.7849 3.62111C99.5486 3.71379 99.2962 3.75876 99.0424 3.75342C98.7886 3.75876 98.5363 3.71379 98.2999 3.62111C98.0636 3.52843 97.8479 3.38987 97.6654 3.21342C97.4828 3.04547 97.3379 2.84073 97.2401 2.61269C97.1424 2.38465 97.0941 2.13849 97.0984 1.89042C97.0923 1.63812 97.1396 1.38737 97.2373 1.15468C97.335 0.921996 97.4809 0.712649 97.6654 0.540424C97.8479 0.363979 98.0636 0.22542 98.2999 0.132738C98.5363 0.0400561 98.7886 -0.00491237 99.0424 0.00042512C99.2962 -0.00491237 99.5486 0.0400561 99.7849 0.132738C100.021 0.22542 100.237 0.363979 100.419 0.540424C100.604 0.712649 100.75 0.921996 100.848 1.15468C100.945 1.38737 100.993 1.63812 100.986 1.89042C100.991 2.13849 100.942 2.38465 100.845 2.61269C100.747 2.84073 100.602 3.04547 100.419 3.21342ZM104.685 20.1964V6.07542H107.952V8.31642C108.337 7.55324 108.938 6.92025 109.68 6.49642C110.542 6.00159 111.523 5.75416 112.515 5.78142C113.168 5.7473 113.82 5.85104 114.429 6.08589C115.039 6.32075 115.592 6.68143 116.052 7.14442C117.007 8.31571 117.473 9.81022 117.352 11.3164V20.1964H114.081V11.6104C114.15 10.7713 113.91 9.93599 113.406 9.26142C113.126 8.98985 112.79 8.78179 112.422 8.65135C112.054 8.52091 111.662 8.47114 111.273 8.50542C110.393 8.47147 109.534 8.78666 108.884 9.38242C108.562 9.71002 108.312 10.1021 108.151 10.5329C107.991 10.9637 107.923 11.4236 107.952 11.8824V20.1964H104.685Z" fill="#1F2022"/>
</svg>
