<svg width="110" height="28" viewBox="0 0 110 28" fill="none" xmlns="http://www.w3.org/2000/svg">
<path d="M3.86478 22.5867L11.1818 27.465C11.4671 27.6547 11.802 27.7559 12.1446 27.7559C12.4872 27.7559 12.8221 27.6547 13.1074 27.465L20.4244 22.5867C21.6145 21.7962 22.5904 20.7233 23.2648 19.4637C23.9392 18.2041 24.2911 16.7971 24.2892 15.3683V1.73915C24.2892 1.2779 24.1059 0.835539 23.7798 0.509385C23.4536 0.183231 23.0113 0 22.55 0H1.73916C1.27791 0 0.835547 0.183231 0.509394 0.509385C0.18324 0.835539 8.17525e-06 1.2779 8.17525e-06 1.73915V15.3683C-0.00195581 16.7971 0.349975 18.2041 1.02437 19.4637C1.69876 20.7233 2.67462 21.7962 3.86478 22.5867ZM3.46961 3.4696H20.8176V15.3683C20.82 16.2266 20.6095 17.0722 20.2048 17.8291C19.8001 18.5861 19.2139 19.2308 18.4988 19.7055L12.1422 23.9404L5.78751 19.7017C5.07294 19.2273 4.4871 18.5832 4.08243 17.827C3.67776 17.0707 3.46688 16.226 3.46864 15.3683L3.46961 3.4696Z" fill="#1F2022"/>
<path d="M10.4086 17.3498C10.8684 17.3491 11.3092 17.1664 11.6347 16.8416L18.57 9.90238L16.1217 7.44922L10.4096 13.1614L8.16606 10.9188L5.71289 13.372L9.18249 16.8416C9.50794 17.1664 9.94878 17.3491 10.4086 17.3498Z" fill="#1F2022"/>
<path d="M38.2213 21.3572C37.109 21.3465 36.0017 21.2064 34.9217 20.9398C33.9745 20.7375 33.0526 20.431 32.1729 20.0258L32.5594 16.4779C34.4277 17.4783 36.4957 18.049 38.6126 18.1485C39.3719 18.19 40.1262 18.0025 40.7778 17.6103C41.0335 17.4371 41.2399 17.2007 41.3771 16.924C41.5142 16.6474 41.5774 16.3399 41.5604 16.0316C41.5781 15.5633 41.4249 15.1045 41.1295 14.7407C40.7879 14.3628 40.3641 14.0683 39.8908 13.8799C39.3517 13.6473 38.4908 13.3224 37.3082 12.905C36.3495 12.5909 35.4234 12.1848 34.543 11.6924C33.8389 11.2936 33.2421 10.73 32.8038 10.0499C32.3605 9.30548 32.1414 8.44898 32.1729 7.58317C32.1493 6.86267 32.2924 6.14645 32.5911 5.49034C32.8897 4.83422 33.3358 4.25593 33.8946 3.80052C35.3176 2.75823 37.0622 2.25026 38.8222 2.36572C39.8362 2.36626 40.847 2.48001 41.8358 2.70485C42.7731 2.91192 43.6931 3.19102 44.5875 3.53964L44.2503 6.95707C43.2919 6.5301 42.3022 6.17706 41.2899 5.90102C40.4173 5.66907 39.5184 5.55054 38.6155 5.54836C37.8277 5.50053 37.042 5.67211 36.3459 6.04402C36.0983 6.19052 35.8949 6.40118 35.7571 6.65373C35.6194 6.90628 35.5524 7.19135 35.5633 7.47882C35.5461 7.91715 35.6952 8.34578 35.9807 8.67883C36.2975 9.01892 36.6846 9.28597 37.115 9.46145C37.5929 9.67015 38.3015 9.92232 39.2406 10.218C40.9147 10.6584 42.4815 11.4352 43.8455 12.5011C44.3318 12.9476 44.7138 13.4958 44.9643 14.1066C45.2148 14.7175 45.3276 15.376 45.2948 16.0354C45.3089 17.4261 44.7747 18.7663 43.8078 19.7659C42.8146 20.8268 40.9524 21.3572 38.2213 21.3572ZM50.3779 21.2529C49.8799 21.2669 49.3841 21.1806 48.9202 20.999C48.4562 20.8174 48.0336 20.5443 47.6774 20.1959C47.3097 19.8203 47.0237 19.3726 46.8374 18.8811C46.6512 18.3895 46.5687 17.8648 46.5953 17.3398C46.5778 16.8217 46.6796 16.3066 46.8928 15.8342C47.1061 15.3617 47.4251 14.9446 47.8252 14.6151C48.6684 13.9151 49.6595 13.4156 50.7238 13.1542C51.7726 12.8767 52.8486 12.7147 53.9325 12.6711C53.9593 12.068 53.7488 11.4784 53.3461 11.0286C52.8404 10.6513 52.2129 10.4747 51.5847 10.533C51.0158 10.5323 50.4496 10.6114 49.9025 10.7677C49.2514 10.9651 48.6184 11.2182 48.0107 11.5243L47.7209 8.88946C49.1934 8.15018 50.8153 7.75693 52.463 7.73969C53.1027 7.69661 53.7444 7.78592 54.348 8.00203C54.9516 8.21815 55.5042 8.55643 55.9712 8.99574C56.8768 10.1191 57.3117 11.5498 57.1848 12.9871V16.5089C57.1713 16.9848 57.2021 17.4609 57.2765 17.9311C57.2862 18.0396 57.3192 18.1447 57.3732 18.2392C57.4273 18.3338 57.5011 18.4155 57.5896 18.4789C57.8254 18.5731 58.0792 18.6134 58.3326 18.5968H58.75L58.465 21.2529H57.2939C56.6693 21.2736 56.0498 21.1346 55.4939 20.849C55.0201 20.5934 54.6298 20.2071 54.3693 19.736C53.8986 20.2424 53.3102 20.6247 52.6562 20.849C51.9272 21.1194 51.1554 21.2562 50.3779 21.2529ZM51.7306 18.7746C52.1167 18.7629 52.4972 18.679 52.8523 18.5272C53.2585 18.369 53.6305 18.1341 53.948 17.8355V14.8615C52.9892 14.892 52.0474 15.1224 51.1828 15.5378C50.8393 15.6651 50.5417 15.892 50.3279 16.1895C50.1141 16.4869 49.9939 16.8413 49.9827 17.2074C49.9641 17.4235 49.9917 17.641 50.0637 17.8456C50.1356 18.0502 50.2503 18.2371 50.4001 18.3939C50.7837 18.6788 51.2586 18.8126 51.7345 18.7698L51.7306 18.7746ZM65.7172 27.5621C64.1834 27.6362 62.6587 27.2886 61.3085 26.5573C60.8117 26.2965 60.3959 25.9046 60.1063 25.424C59.8167 24.9435 59.6644 24.3927 59.6659 23.8317C59.6952 23.1729 59.9086 22.5356 60.282 21.9922C60.6553 21.4487 61.1737 21.0208 61.778 20.7572C61.4363 20.5821 61.1488 20.3171 60.9465 19.9907C60.7443 19.6644 60.6349 19.289 60.6302 18.905C60.6259 18.5193 60.7499 18.143 60.9829 17.8355C61.2329 17.5098 61.5586 17.2501 61.9317 17.0789C61.2815 16.622 60.7641 16.0009 60.4321 15.2789C60.0886 14.5249 59.9157 13.7045 59.9258 12.876C59.9151 11.9636 60.1302 11.0628 60.5519 10.2537C60.967 9.4648 61.6011 8.81256 62.378 8.37545C63.248 7.8974 64.2293 7.65899 65.2216 7.68462C66.2743 7.65748 67.3107 7.94841 68.1955 8.51941C68.5725 8.33442 68.9715 8.19837 69.383 8.11457C69.9096 7.99838 70.4476 7.94166 70.9868 7.94549H71.8216L71.6129 9.98029H70.4342C70.1385 9.98029 69.895 9.98899 69.7037 10.0064C70.2419 10.8648 70.5142 11.8632 70.4863 12.876C70.4972 13.7864 70.287 14.6859 69.8738 15.4973C69.4679 16.2878 68.839 16.9419 68.0651 17.3784C67.1951 17.8565 66.2138 18.0949 65.2216 18.0693C64.7553 18.0608 64.2914 17.9995 63.8389 17.8867C63.7529 17.917 63.6787 17.9737 63.6267 18.0486C63.5747 18.1235 63.5475 18.2129 63.5491 18.3041C63.5551 18.4233 63.5969 18.538 63.6689 18.6333C63.7409 18.7286 63.8399 18.8 63.9529 18.8384C64.3915 19.0116 64.8525 19.1216 65.322 19.1649L67.5655 19.4548C70.5569 19.8548 72.0525 21.1157 72.0525 23.2374C72.0653 23.8636 71.9172 24.4825 71.6225 25.0352C71.3279 25.5878 70.8964 26.0556 70.3694 26.394C68.9738 27.2479 67.3507 27.6554 65.7172 27.5621ZM65.2216 15.6702C65.5492 15.6889 65.8767 15.6314 66.1784 15.5023C66.4802 15.3733 66.7479 15.1761 66.9607 14.9262C67.3983 14.3356 67.6138 13.6097 67.5694 12.876C67.612 12.1423 67.3948 11.4171 66.9559 10.8276C66.7431 10.5778 66.4753 10.3806 66.1736 10.2515C65.8719 10.1225 65.5444 10.065 65.2167 10.0837C64.8858 10.0637 64.5548 10.1204 64.2494 10.2495C63.944 10.3785 63.6726 10.5764 63.4563 10.8276C63.0174 11.4171 62.8002 12.1423 62.8428 12.876C62.8004 13.6093 63.0177 14.3341 63.4563 14.9233C63.6728 15.1758 63.9449 15.3746 64.2512 15.5042C64.5575 15.6338 64.8896 15.6906 65.2216 15.6702ZM65.8476 25.1138C68.0738 25.1138 69.1868 24.5663 69.1868 23.4713C69.1993 23.2555 69.1525 23.0404 69.0513 22.8495C68.9501 22.6585 68.7985 22.4989 68.6129 22.3882C68.0174 22.0872 67.3721 21.8972 66.7085 21.8278L63.8389 21.4094C63.4276 21.5132 63.0606 21.747 62.7927 22.076C62.5249 22.405 62.3703 22.8116 62.352 23.2355C62.3472 23.5344 62.4315 23.828 62.5941 24.0789C62.7566 24.3297 62.9902 24.5265 63.265 24.6442C64.0782 24.9977 64.9621 25.1584 65.8476 25.1138ZM73.6226 2.73094H76.8574V5.96576H73.6226V2.73094ZM73.6226 7.94839H76.8574V20.992H73.6226V7.94839ZM84.1348 21.2529C83.6529 21.2868 83.1695 21.2143 82.7187 21.0407C82.2679 20.867 81.8607 20.5964 81.5261 20.248C80.9363 19.5836 80.6194 18.7208 80.6391 17.8326V10.6064H78.7869L79.0768 7.94549H80.642V5.07589L83.8768 4.73676V7.94839H86.7464V10.6093H83.8739V16.5031C83.8542 16.9892 83.8938 17.4758 83.9918 17.9524C84.0212 18.0753 84.0825 18.1882 84.1695 18.2798C84.2566 18.3714 84.3662 18.4385 84.4875 18.4741C84.9368 18.5722 85.397 18.6119 85.8566 18.592H86.7435L86.4566 21.2529H84.1348ZM93.1088 21.2529C92.627 21.2869 92.1436 21.2146 91.6928 21.0411C91.242 20.8676 90.8348 20.5972 90.5001 20.249C89.9103 19.5846 89.5934 18.7218 89.6131 17.8335V10.6074H87.7609L88.0508 7.94646H89.616V5.07686L92.8508 4.73772V7.94839H95.7204V10.6093H92.8499V16.5031C92.8299 16.9891 92.8691 17.4758 92.9668 17.9524C92.9962 18.0753 93.0575 18.1882 93.1445 18.2798C93.2315 18.3714 93.3412 18.4385 93.4624 18.4741C93.9121 18.5723 94.3726 18.6119 94.8325 18.592H95.7195L95.4306 21.2529H93.1088ZM100.645 21.2529C100.148 21.2664 99.6527 21.1798 99.1895 20.9982C98.7262 20.8166 98.3042 20.5438 97.9485 20.1959C97.5807 19.8203 97.2947 19.3726 97.1085 18.8811C96.9223 18.3895 96.8398 17.8648 96.8663 17.3398C96.8483 16.8221 96.9493 16.3072 97.1617 15.8348C97.3741 15.3624 97.6922 14.9451 98.0915 14.6151C98.9347 13.9151 99.9258 13.4156 100.99 13.1542C102.039 12.8767 103.115 12.7147 104.199 12.6711C104.226 12.068 104.015 11.4784 103.612 11.0286C103.107 10.6513 102.479 10.4747 101.851 10.533C101.282 10.5322 100.715 10.6113 100.168 10.7677C99.517 10.9651 98.8844 11.2182 98.277 11.5243L97.9871 8.88946C99.4616 8.14999 101.086 7.75738 102.735 7.74162C103.375 7.69841 104.017 7.78765 104.621 8.00377C105.224 8.21989 105.777 8.55824 106.244 8.99767C107.15 10.1211 107.585 11.5517 107.458 12.989V16.5108C107.444 16.9867 107.474 17.4628 107.549 17.933C107.558 18.0415 107.591 18.1466 107.645 18.2411C107.699 18.3357 107.773 18.4175 107.862 18.4809C108.098 18.5752 108.352 18.6155 108.606 18.5987H109.023L108.735 21.2529H107.561C106.937 21.2736 106.317 21.1346 105.761 20.849C105.288 20.5932 104.898 20.2069 104.637 19.736C104.169 20.2414 103.583 20.6237 102.931 20.849C102.201 21.1199 101.427 21.2568 100.648 21.2529H100.645ZM101.998 18.7746C102.384 18.7629 102.764 18.679 103.12 18.5272C103.526 18.369 103.898 18.1341 104.215 17.8355V14.8615C103.256 14.892 102.315 15.1224 101.45 15.5378C101.107 15.6651 100.809 15.892 100.595 16.1895C100.381 16.4869 100.261 16.8413 100.25 17.2074C100.232 17.4244 100.261 17.6427 100.334 17.8477C100.408 18.0527 100.524 18.2396 100.676 18.3958C101.058 18.6787 101.531 18.8117 102.005 18.7698L101.998 18.7746Z" fill="#1F2022"/>
</svg>
