<svg width="90" height="25" viewBox="0 0 90 25" fill="none" xmlns="http://www.w3.org/2000/svg">
<path d="M1.06868 8.1395H9.97178L7.02667 20.2487H10.2203L9.15158 24.6031H0.248477L3.19359 12.494H0L1.06868 8.1395ZM4.8675 2.8316C4.86601 2.45265 4.94413 2.07722 5.09728 1.72727C5.24196 1.39148 5.45535 1.08627 5.72509 0.829311C5.99682 0.572627 6.31781 0.367744 6.6707 0.225737C7.04384 0.0755987 7.44554 6.22164e-05 7.85077 0.00383532C8.24226 0.00155359 8.62992 0.0771423 8.98878 0.225737C9.33748 0.36944 9.65457 0.574199 9.92349 0.829311C10.1938 1.08735 10.4096 1.39216 10.5591 1.72727C10.716 2.07623 10.7956 2.45216 10.7928 2.8316C10.7956 3.21105 10.716 3.58698 10.5591 3.93594C10.4096 4.27105 10.1938 4.57587 9.92349 4.8339C9.65457 5.08901 9.33748 5.29377 8.98878 5.43747C8.62992 5.58607 8.24226 5.66166 7.85077 5.65937C7.44554 5.66317 7.04383 5.58763 6.6707 5.43747C6.31781 5.29547 5.99682 5.09058 5.72509 4.8339C5.45544 4.57716 5.24205 4.27221 5.09728 3.93668C4.94403 3.5865 4.86591 3.21081 4.8675 2.8316ZM12.3311 17.6739C12.3103 16.2571 12.6038 14.8521 13.1926 13.5502C13.7352 12.3598 14.5234 11.2846 15.5107 10.3881C16.4862 9.51134 17.632 8.82323 18.8842 8.36214C20.1716 7.88359 21.5428 7.6409 22.9253 7.64688C23.9789 7.63938 25.0232 7.83385 25.9958 8.21864C26.9227 8.5831 27.7665 9.11461 28.4806 9.78379C29.188 10.4523 29.7508 11.2459 30.1373 12.1197C30.5426 13.0324 30.7475 14.0139 30.7395 15.0044C30.7555 16.3775 30.4794 17.7396 29.9278 19.009C29.4119 20.1916 28.6557 21.2661 27.7024 22.1711C26.7438 23.0706 25.6049 23.7784 24.3531 24.2525C23.0259 24.7575 21.6077 25.0113 20.178 24.9996C19.1069 25.0101 18.0448 24.8128 17.0569 24.4197C16.1306 24.0504 15.2872 23.5164 14.5721 22.8464C13.8676 22.181 13.308 21.3903 12.9255 20.5194C12.5271 19.619 12.3249 18.6513 12.3311 17.6746V17.6739ZM17.7836 17.0858C17.7782 17.5208 17.8517 17.9534 18.0009 18.3647C18.1345 18.7329 18.3418 19.073 18.6116 19.3663C18.8702 19.6448 19.189 19.8671 19.5463 20.0179C19.918 20.1735 20.3202 20.2521 20.7264 20.2487C21.3105 20.248 21.8874 20.126 22.4167 19.8914C22.9667 19.653 23.4651 19.3194 23.8865 18.9077C24.3228 18.4792 24.6717 17.9776 24.9154 17.4283C25.1748 16.8481 25.3058 16.2235 25.3002 15.5932C25.3109 15.1145 25.2285 14.6381 25.0572 14.1878C24.9143 13.8192 24.6953 13.4815 24.413 13.1944C24.1512 12.9331 23.8321 12.7295 23.4783 12.5982C23.1155 12.4647 22.7294 12.3972 22.3403 12.3993C21.7246 12.394 21.1154 12.5204 20.5581 12.7691C20.0128 13.0134 19.5234 13.3572 19.1179 13.781C18.7029 14.2168 18.3741 14.7202 18.1474 15.267C17.9048 15.8458 17.7823 16.4636 17.7867 17.0866L17.7836 17.0858ZM33.8653 8.1358H42.6671L42.3992 9.48644V9.47091C42.8876 9.11899 43.4091 8.81048 43.957 8.54928C44.4876 8.29952 45.0438 8.10222 45.6169 7.9605C46.1904 7.81693 46.7811 7.74482 47.3742 7.74599C48.2469 7.72772 49.1138 7.88476 49.9181 8.20681C50.6121 8.49043 51.2131 8.94592 51.6582 9.52564C52.1147 10.1511 52.3993 10.875 52.4862 11.6315C52.5956 12.5759 52.5246 13.5314 52.2767 14.4519L50.8544 20.2487H54.0137L52.9629 24.6031H44.077L46.2354 15.7515C46.3324 15.3911 46.3635 15.0175 46.3273 14.6471C46.2988 14.3471 46.2077 14.0554 46.0593 13.7891C45.9283 13.5589 45.7311 13.3688 45.4907 13.241C45.2367 13.1105 44.9515 13.0448 44.6627 13.0502C43.9188 13.0988 43.1969 13.311 42.5542 13.67C42.0777 13.907 41.6241 14.1835 41.1988 14.4962L38.7382 24.6031H32.8644L35.8095 12.494H32.7974L33.8653 8.1358ZM57.6451 8.1358H66.5544L63.6062 20.2487H66.7998L65.7318 24.6031H56.8287L59.7777 12.494H56.5842L57.6451 8.1358ZM61.4439 2.82791C61.4411 2.4492 61.5179 2.07378 61.6698 1.72358C61.8144 1.38778 62.0278 1.08257 62.2976 0.825612C62.5693 0.568928 62.8903 0.364044 63.2432 0.222037C63.6163 0.0718792 64.018 -0.00365812 64.4232 0.00013617C64.8147 -0.00214556 65.2024 0.0734432 65.5613 0.222037C65.91 0.365741 66.2271 0.570499 66.496 0.825612C66.7663 1.08365 66.982 1.38846 67.1316 1.72358C67.2885 2.07253 67.3681 2.44846 67.3652 2.82791C67.3681 3.20735 67.2885 3.58328 67.1316 3.93224C66.982 4.26735 66.7663 4.57217 66.496 4.8302C66.2271 5.08531 65.91 5.29007 65.5613 5.43377C65.2024 5.58237 64.8147 5.65796 64.4232 5.65568C64.018 5.65947 63.6163 5.58393 63.2432 5.43377C62.8903 5.29177 62.5693 5.08688 62.2976 4.8302C62.0278 4.57325 61.8144 4.26804 61.6698 3.93224C61.5198 3.58293 61.4443 3.20882 61.4478 2.8316L61.4439 2.82791ZM80.3577 23.3457C79.8897 23.7956 79.3324 24.1528 78.7181 24.3968C77.9083 24.7198 77.0358 24.8768 76.1577 24.8576C75.2489 24.8567 74.3476 24.7006 73.4969 24.3968C72.6335 24.0937 71.8446 23.626 71.1789 23.0225C70.4785 22.3786 69.9208 21.6083 69.5384 20.7568C69.1024 19.7716 68.8885 18.7106 68.9106 17.6421C68.9029 16.6771 69.0438 15.7162 69.3289 14.7899C69.5945 13.9331 69.983 13.115 70.4833 12.3586C70.9671 11.6303 71.5557 10.9698 72.232 10.3962C72.9013 9.82789 73.6435 9.34203 74.441 8.95018C75.2428 8.55671 76.091 8.25527 76.9678 8.05222C77.8523 7.84589 78.7599 7.74183 79.6707 7.74229C80.1108 7.73673 80.5506 7.76866 80.9847 7.83771C81.3482 7.90132 81.7637 7.99674 82.231 8.12397C82.8219 8.31135 83.376 8.59055 83.8707 8.95018L84.0716 8.13654H89.7578L86.7978 20.2457H90L88.9259 24.6031H80.0563L80.3577 23.3457ZM80.9769 18.6895L81.713 17.8152L82.5496 14.3823C82.4076 14.1275 82.2333 13.89 82.0308 13.6752C81.803 13.4354 81.5341 13.2338 81.2355 13.079C80.9093 12.9065 80.5604 12.7757 80.198 12.69C79.8289 12.6004 79.4495 12.5549 79.0686 12.5546C78.4752 12.5528 77.8879 12.6692 77.3448 12.8963C76.8112 13.1156 76.3258 13.4283 75.9139 13.818C75.5 14.214 75.1679 14.6801 74.9348 15.1923C74.6878 15.7286 74.5622 16.3082 74.5664 16.8935C74.5567 17.3487 74.642 17.8012 74.8172 18.2249C74.9702 18.5864 75.2044 18.9118 75.5034 19.1784C75.7933 19.4324 76.135 19.627 76.5075 19.7501C76.9002 19.8794 77.3132 19.944 77.7288 19.941C78.1097 19.9394 78.4889 19.8939 78.8583 19.8056C79.2466 19.7142 79.6208 19.5753 79.9714 19.3921C80.3379 19.2023 80.6761 18.9667 80.9769 18.6917V18.6895Z" fill="#1F2022"/>
</svg>
