<svg width="112" height="32" viewBox="0 0 112 32" fill="none" xmlns="http://www.w3.org/2000/svg">
<path d="M39.2877 15.8877C39.2732 14.7079 39.5077 13.5382 39.976 12.4552C40.4214 11.4363 41.0802 10.5248 41.9082 9.78245C42.7776 9.01419 43.7907 8.42596 44.889 8.05177C46.1323 7.62998 47.4386 7.42348 48.7514 7.44115C50.0614 7.42591 51.3644 7.63362 52.6048 8.05538C53.7066 8.42816 54.7233 9.01648 55.5955 9.78606C56.4234 10.5284 57.0823 11.4399 57.5276 12.4589C57.996 13.5419 58.2305 14.7115 58.2159 15.8913C58.2297 17.0787 57.9952 18.2558 57.5276 19.3473C57.0828 20.3756 56.4242 21.2975 55.5955 22.0517C54.7248 22.8302 53.7083 23.4283 52.6048 23.8113C51.3666 24.2433 50.0627 24.4563 48.7514 24.4408C47.4384 24.4563 46.1328 24.2424 44.8935 23.8085C43.7934 23.4234 42.7804 22.8244 41.9127 22.0463C41.0826 21.2931 40.4224 20.3718 39.976 19.3436C39.5085 18.2522 39.274 17.075 39.2877 15.8877ZM42.6434 15.8877C42.6312 16.681 42.7882 17.4678 43.1041 18.1956C43.4 18.8648 43.8369 19.4622 44.3849 19.947C44.9518 20.4422 45.61 20.8218 46.3225 21.0644C47.1041 21.3314 47.9254 21.4636 48.7514 21.4555C49.5774 21.4633 50.3987 21.3308 51.1803 21.0635C51.8914 20.8219 52.548 20.4425 53.1124 19.947C53.6583 19.4603 54.0949 18.8633 54.3933 18.1956C54.7127 17.4687 54.8716 16.6815 54.8594 15.8877C54.8724 15.0973 54.7133 14.3135 54.3933 13.5907C54.0957 12.9326 53.6586 12.347 53.1124 11.8744C52.5457 11.3923 51.889 11.0272 51.1803 10.8004C50.3961 10.5458 49.5759 10.4192 48.7514 10.4256C47.9271 10.4177 47.107 10.5428 46.3225 10.7959C45.6125 11.0235 44.9542 11.3885 44.3849 11.8699C43.8366 12.3405 43.3992 12.9266 43.1041 13.5862C42.787 14.3113 42.6299 15.0963 42.6434 15.8877ZM61.549 11.7173H64.6825V13.5166C65.3695 13.0041 66.1032 12.5574 66.8739 12.1825C67.6092 11.8211 68.3786 11.534 69.1709 11.3252L70.0922 14.1941C68.9944 14.2869 67.9196 14.5617 66.9118 15.007C66.0311 15.4003 65.2645 16.0103 64.6834 16.7801V24.2078H61.549V11.7173ZM74.0712 10.0128C73.7851 10.0169 73.5004 9.9723 73.2293 9.88091C72.9951 9.80157 72.7779 9.67902 72.5889 9.5196C72.4172 9.37394 72.2784 9.19353 72.1815 8.99027C72.0865 8.79019 72.0378 8.57132 72.0388 8.34985C72.0369 8.12481 72.0857 7.90223 72.1815 7.69859C72.2775 7.49635 72.4165 7.31754 72.5889 7.17469C72.7791 7.01861 72.9961 6.89833 73.2293 6.8197C73.5004 6.72831 73.7851 6.68371 74.0712 6.68782C74.3605 6.68325 74.6485 6.72784 74.923 6.8197C75.1561 6.89833 75.3731 7.01861 75.5634 7.17469C75.7357 7.31754 75.8748 7.49635 75.9708 7.69859C76.0665 7.90223 76.1153 8.12481 76.1135 8.34985C76.1145 8.57132 76.0657 8.79019 75.9708 8.99027C75.8739 9.19353 75.7351 9.37394 75.5634 9.5196C75.3744 9.67902 75.1571 9.80157 74.923 9.88091C74.6485 9.97276 74.3605 10.0174 74.0712 10.0128ZM72.5076 11.7173H75.6411V24.2078H72.5076V11.7173ZM78.901 17.9625C78.8942 17.0932 79.0793 16.233 79.443 15.4433C79.8093 14.6557 80.3396 13.9554 80.9984 13.3892C81.7188 12.777 82.5484 12.3066 83.4436 12.0027C84.4811 11.651 85.5711 11.4793 86.6665 11.4951C87.7619 11.4796 88.8519 11.6516 89.8894 12.0036C90.7846 12.3075 91.6142 12.7779 92.3345 13.3901C92.9945 13.9565 93.5258 14.6575 93.8927 15.446C94.2564 16.2357 94.4414 17.0959 94.4347 17.9652C94.4414 18.8346 94.2564 19.6948 93.8927 20.4845C93.526 21.2719 92.9954 21.9718 92.3363 22.5376C91.6158 23.1492 90.7862 23.619 89.8912 23.9224C88.8537 24.2744 87.7637 24.4464 86.6683 24.4309C85.5729 24.4466 84.4829 24.275 83.4454 23.9233C82.5494 23.619 81.7191 23.148 80.9984 22.5349C80.3394 21.9691 79.8088 21.2691 79.4421 20.4818C79.0778 19.6922 78.8921 18.832 78.8983 17.9625H78.901ZM82.1934 17.9625C82.1913 18.4531 82.2941 18.9385 82.4951 19.3861C82.7001 19.8396 82.9998 20.244 83.374 20.5721C83.7874 20.9303 84.2654 21.2062 84.7822 21.3851C85.3897 21.5951 86.0292 21.6972 86.6719 21.6867C87.3146 21.6972 87.9541 21.5951 88.5616 21.3851C89.0784 21.2062 89.5564 20.9303 89.9698 20.5721C90.3423 20.2435 90.6404 19.8392 90.8441 19.3861C91.0451 18.9385 91.148 18.4531 91.1458 17.9625C91.1482 17.469 91.0453 16.9806 90.8441 16.5299C90.6401 16.0746 90.3403 15.6685 89.9652 15.3394C89.5519 14.9812 89.0739 14.7053 88.557 14.5265C87.9496 14.3165 87.31 14.2143 86.6674 14.2248C86.0247 14.2143 85.3852 14.3165 84.7777 14.5265C84.2608 14.7053 83.7829 14.9812 83.3695 15.3394C82.9951 15.6687 82.6959 16.0747 82.4924 16.5299C82.2912 16.9806 82.1884 17.469 82.1907 17.9625H82.1934ZM97.6061 11.7173H100.74V12.7759C101.487 12.3388 102.29 12.0046 103.127 11.7823C103.855 11.5957 104.604 11.4998 105.355 11.4969C106.255 11.4883 107.149 11.6297 108.002 11.9151C108.784 12.1764 109.502 12.6003 110.108 13.1589C110.718 13.7343 111.193 14.4372 111.5 15.2175C111.849 16.1256 112.019 17.0928 111.999 18.0655V24.2078H108.876V18.5768C108.886 17.9524 108.788 17.3311 108.585 16.7404C108.409 16.2297 108.124 15.7636 107.749 15.3746C107.376 14.9981 106.924 14.7091 106.426 14.5283C105.867 14.3275 105.277 14.229 104.684 14.2374C104.334 14.2385 103.985 14.2739 103.642 14.3431C103.285 14.4139 102.934 14.5148 102.594 14.6448C102.248 14.7761 101.916 14.939 101.6 15.1317C101.289 15.3211 100.998 15.5427 100.732 15.7929V24.2078H97.6025L97.6061 11.7173Z" fill="#1F2022"/>
<path d="M16.5525 31.646C13.4524 31.646 10.4219 30.7267 7.84419 29.0044C5.26651 27.2821 3.25746 24.834 2.07109 21.9699C0.884721 19.1057 0.574312 15.9541 1.17912 12.9135C1.78393 9.87293 3.27679 7.07999 5.46891 4.88786C7.66104 2.69573 10.454 1.20287 13.4946 0.598065C16.5351 -0.00674236 19.6868 0.303667 22.5509 1.49004C25.4151 2.67641 27.8631 4.68546 29.5855 7.26313C31.3078 9.8408 32.2271 12.8713 32.2271 15.9715C32.2271 20.1286 30.5757 24.1155 27.6361 27.0551C24.6966 29.9946 20.7097 31.646 16.5525 31.646ZM16.5525 28.5108C19.8783 28.5108 23.0678 27.1896 25.4195 24.838C27.7711 22.4863 29.0923 19.2968 29.0923 15.971C29.0923 12.6453 27.7711 9.45572 25.4195 7.10406C23.0678 4.7524 19.8783 3.43126 16.5525 3.43126C13.2268 3.43126 10.0372 4.7524 7.68557 7.10406C5.33391 9.45572 4.01276 12.6453 4.01276 15.971C4.01276 19.2968 5.33391 22.4863 7.68557 24.838C10.0372 27.1896 13.2268 28.5108 16.5525 28.5108ZM19.6878 12.8362H14.9853C14.5696 12.8362 14.1708 12.671 13.8768 12.377C13.5829 12.083 13.4177 11.6843 13.4177 11.2685C13.4177 10.8528 13.5829 10.454 13.8768 10.1601C14.1708 9.86607 14.5696 9.70091 14.9853 9.70091H21.255C21.6706 9.70091 22.0692 9.86602 22.3631 10.1599C22.6571 10.4538 22.8222 10.8524 22.8222 11.2681V17.5377C22.8222 17.9535 22.657 18.3522 22.363 18.6462C22.069 18.9402 21.6703 19.1054 21.2545 19.1054C20.8388 19.1054 20.44 18.9402 20.146 18.6462C19.8521 18.3522 19.6869 17.9535 19.6869 17.5377L19.6878 12.8362ZM14.9853 17.5386H10.2829C9.8671 17.5386 9.46837 17.3735 9.17438 17.0795C8.88039 16.7855 8.71523 16.3868 8.71523 15.971C8.71523 15.5552 8.88039 15.1565 9.17438 14.8625C9.46837 14.5685 9.8671 14.4034 10.2829 14.4034H16.5525C16.9682 14.4034 17.3668 14.5685 17.6607 14.8624C17.9546 15.1563 18.1197 15.5549 18.1197 15.9706V22.2402C18.1197 22.656 17.9545 23.0547 17.6606 23.3487C17.3666 23.6427 16.9678 23.8078 16.5521 23.8078C16.1363 23.8078 15.7376 23.6427 15.4436 23.3487C15.1496 23.0547 14.9844 22.656 14.9844 22.2402L14.9853 17.5386Z" fill="#1F2022"/>
</svg>
