<svg width="64" height="26" viewBox="0 0 64 26" fill="none" xmlns="http://www.w3.org/2000/svg">
<path d="M0 25.3876C0.0831127 25.0892 0.148516 24.7865 0.195881 24.4808C0.255423 24.1203 0.308874 23.6725 0.356237 23.1374C0.4036 22.6024 0.439124 21.9657 0.462805 21.2276C0.486487 20.4895 0.498327 19.6263 0.498327 18.6382V7.28534C0.498327 6.29719 0.486487 5.43405 0.462805 4.69591C0.439124 3.95777 0.4036 3.31818 0.356237 2.77715C0.308874 2.23677 0.255423 1.78635 0.195881 1.42588C0.148516 1.12018 0.0831127 0.817408 0 0.519084V0.449636H4.26267V0.519084C4.17956 0.817846 4.11181 1.12049 4.05968 1.42588C3.99202 1.78635 3.93857 2.23677 3.89933 2.77715C3.86008 3.31752 3.82456 3.95711 3.79276 4.69591C3.76299 5.43405 3.7481 6.29719 3.7481 7.28534V18.6382C3.7481 19.6263 3.76299 20.4895 3.79276 21.2276C3.82253 21.9657 3.85805 22.6024 3.89933 23.1374C3.94128 23.6725 3.99473 24.1203 4.05968 24.4808C4.11181 24.7862 4.17956 25.0888 4.26267 25.3876V25.457H0V25.3876ZM16.9492 18.6411C16.9492 19.6293 16.9641 20.4924 16.9938 21.2306C17.0236 21.9687 17.0591 22.6053 17.1004 23.1404C17.1424 23.6755 17.1958 24.1233 17.2608 24.4837C17.3129 24.7891 17.3806 25.0918 17.4637 25.3905V25.457H13.1818V25.3876C13.2649 25.0888 13.3327 24.7862 13.3848 24.4808C13.4524 24.1203 13.5059 23.6725 13.5451 23.1374C13.5844 22.6024 13.6199 21.9687 13.6517 21.2365C13.6815 20.5044 13.6964 19.6382 13.6964 18.6382V7.28534C13.6964 6.29719 13.6815 5.43405 13.6517 4.69591C13.6219 3.95777 13.5864 3.32116 13.5451 2.78608C13.5032 2.25099 13.4497 1.80057 13.3848 1.43481C13.3332 1.12637 13.2654 0.82073 13.1818 0.519084V0.449636L13.9308 0.519084C14.1568 0.542233 14.4095 0.556785 14.689 0.562738C14.9684 0.56869 15.257 0.571666 15.5547 0.571666C16.185 0.557712 16.8136 0.502359 17.4363 0.405982C18.4391 0.283178 19.4493 0.22782 20.4598 0.240298C21.533 0.230337 22.6012 0.383292 23.6263 0.693697C24.5479 0.970879 25.4053 1.42111 26.1505 2.01917C26.8636 2.59937 27.4338 3.3291 27.819 4.15421C28.2305 5.0564 28.4349 6.03575 28.4178 7.02342C28.425 7.81119 28.3139 8.59572 28.0879 9.35193C27.88 10.0418 27.5673 10.6973 27.1603 11.2965C26.7622 11.8776 26.2783 12.3978 25.7242 12.8402C25.1535 13.2945 24.5234 13.6726 23.8506 13.9643L30.1127 22.562C30.4219 22.9919 30.7105 23.364 30.9784 23.6781C31.2181 23.9625 31.4743 24.2331 31.7457 24.4887C31.9631 24.6949 32.1989 24.8818 32.4501 25.0473C32.667 25.1882 32.9008 25.3025 33.1463 25.3876V25.457H27.9905C27.9211 25.1477 27.8037 24.8506 27.6424 24.576C27.4387 24.1975 27.2092 23.8329 26.9553 23.4847L20.6394 14.7828C20.3688 14.8059 20.0951 14.8264 19.8184 14.8443C19.5416 14.8622 19.2622 14.8708 18.98 14.8701C18.6471 14.8701 18.3112 14.8585 17.9722 14.8354C17.6283 14.8116 17.2859 14.7708 16.9461 14.7133L16.9492 18.6411ZM16.9492 13.3571C17.2727 13.4271 17.6005 13.4765 17.9306 13.5049C18.2635 13.534 18.5846 13.5486 18.8938 13.5486C19.7259 13.5569 20.553 13.4226 21.3377 13.1517C22.0522 12.9055 22.6969 12.4975 23.2194 11.9612C23.7612 11.3865 24.1719 10.7057 24.4241 9.96407C24.7264 9.06123 24.8712 8.1151 24.8524 7.1653C24.8614 6.36474 24.7589 5.56671 24.5479 4.79314C24.3738 4.13835 24.0678 3.52413 23.6477 2.98649C23.2467 2.49049 22.7299 2.09582 22.1405 1.83563C21.4716 1.55 20.7471 1.41018 20.0173 1.42588C19.3607 1.41482 18.7043 1.45563 18.0544 1.54791C17.6783 1.60222 17.308 1.68989 16.9482 1.80983L16.9492 13.3571ZM38.5822 25.3876C38.6653 25.0892 38.7307 24.7865 38.7781 24.4808C38.8376 24.1203 38.8911 23.6725 38.9385 23.1374C38.9858 22.6024 39.0213 21.9657 39.045 21.2276C39.0687 20.4895 39.0806 19.6263 39.0806 18.6382V7.28534C39.0806 6.29719 39.0687 5.43405 39.045 4.69591C39.0213 3.95777 38.9862 3.31818 38.9395 2.77715C38.8921 2.23677 38.8387 1.78635 38.7791 1.42588C38.7318 1.12018 38.6664 0.817408 38.5832 0.519084V0.449636H42.8459V0.519084C42.7628 0.817846 42.695 1.12049 42.6429 1.42588C42.5753 1.78635 42.5218 2.23677 42.4826 2.77715C42.4433 3.31752 42.4078 3.95711 42.376 4.69591C42.3462 5.43405 42.3313 6.29719 42.3313 7.28534V18.6382C42.3313 19.6263 42.3462 20.4895 42.376 21.2276C42.4058 21.9657 42.4413 22.6024 42.4826 23.1374C42.5245 23.6725 42.578 24.1203 42.6429 24.4808C42.695 24.7862 42.7628 25.0888 42.8459 25.3876V25.457H38.5832L38.5822 25.3876ZM62.4319 4.42407H62.0391C61.9196 4.10743 61.7672 3.80358 61.5844 3.51727C61.3608 3.16218 61.084 2.84182 60.7633 2.56682C60.3981 2.25444 59.982 2.00395 59.5322 1.82571C58.9901 1.61673 58.4108 1.51554 57.8282 1.52807C57.2986 1.51904 56.7721 1.60791 56.2764 1.78999C55.848 1.94907 55.4611 2.19915 55.1437 2.52217C54.8364 2.84244 54.6022 3.22288 54.4566 3.63831C54.2969 4.09855 54.2183 4.58198 54.2242 5.06795C54.228 5.91802 54.4786 6.74957 54.9468 7.46591C55.4688 8.27781 56.0756 9.03455 56.7574 9.72397C57.4828 10.4681 58.2676 11.2122 59.112 11.9562C59.9411 12.6853 60.7272 13.4598 61.4667 14.2758C62.168 15.0444 62.7756 15.8901 63.2773 16.7958C63.7571 17.6662 64.0056 18.6405 63.9999 19.6293C63.995 20.4047 63.8578 21.1739 63.5939 21.9052C63.3279 22.6637 62.9058 23.361 62.3537 23.954C61.7517 24.5903 61.0178 25.0939 60.2011 25.4312C59.2058 25.8306 58.1365 26.0235 57.0609 25.9977C56.4111 26.0002 55.7626 25.9388 55.1254 25.8142C54.5505 25.7011 53.9845 25.5486 53.4315 25.3578C52.9545 25.1945 52.4896 24.9993 52.0401 24.7734C51.6932 24.6006 51.3567 24.4085 51.0323 24.198L51.4382 20.3436H51.8838C52.0158 20.8927 52.2324 21.4189 52.5262 21.9042C52.8197 22.3936 53.1899 22.8348 53.6234 23.2118C54.0643 23.5938 54.568 23.9004 55.1133 24.1186C55.6973 24.3525 56.3232 24.4702 56.9543 24.4649C57.5106 24.4735 58.0638 24.382 58.5863 24.195C59.0465 24.0279 59.4681 23.773 59.8265 23.445C60.172 23.1245 60.4427 22.735 60.6202 22.3031C60.808 21.8418 60.9015 21.349 60.8953 20.8526C60.9038 20.1553 60.7656 19.4637 60.4893 18.8207C60.2092 18.1878 59.8466 17.5929 59.4104 17.0508C58.947 16.4739 58.4402 15.9317 57.8941 15.4287C57.3292 14.9055 56.7493 14.3793 56.1546 13.8502C55.5598 13.3211 54.98 12.7774 54.415 12.2192C53.8564 11.669 53.349 11.0714 52.8987 10.4333C52.452 9.8001 52.0885 9.11446 51.8168 8.39255C51.5373 7.62303 51.3998 6.8111 51.4108 5.99459C51.3981 5.13827 51.5841 4.29026 51.9548 3.51429C52.3026 2.79571 52.794 2.15242 53.4001 1.62232C53.9985 1.10038 54.6914 0.692244 55.4431 0.41888C56.1956 0.141354 56.9934 -0.000499382 57.7977 0.00020421C58.348 -0.0035053 58.8975 0.0433308 59.4389 0.140094C59.8946 0.222283 60.3444 0.332966 60.7857 0.471462C61.1842 0.599114 61.532 0.727097 61.829 0.855411L62.5607 1.16892L62.4319 4.42407Z" fill="#1F2022"/>
</svg>
