<svg fill="none" height="28" viewBox="0 0 28 28" width="28" xmlns="http://www.w3.org/2000/svg" xmlns:xlink="http://www.w3.org/1999/xlink"><clipPath id="a"><path d="m0 0h28v28h-28z"/></clipPath><g clip-path="url(#a)" stroke="#acb732" stroke-linecap="round" stroke-linejoin="round" stroke-width="2"><path d="m14 10.5c-.9283 0-1.8185.3687-2.4749 1.0251s-1.0251 1.5466-1.0251 2.4749.3687 1.8185 1.0251 2.4749 1.5466 1.0251 2.4749 1.0251 1.8185-.3687 2.4749-1.0251 1.0251-1.5466 1.0251-2.4749-.3687-1.8185-1.0251-2.4749-1.5466-1.0251-2.4749-1.0251z"/><path d="m22.633 17.5004h-.0116c-.3267.7117-.175 1.5517.385 2.1233l.07.07c.91.91.91 2.38 0 3.29-.0117 0-.0117 0-.0117 0v-.0116c-.9217.91-2.3917.91-3.3017 0-.0116-.0117-.0116-.0117-.0116-.0117l-.07-.07-.0117-.0117c-.5717-.56-1.4117-.7116-2.1233-.385h-.0117c-.7117.2917-1.1667.9917-1.1667 1.7617v.1867c0 1.2833-1.05 2.3333-2.3333 2.3333l-.0117-.0012c-1.295-.0116-2.3333-1.05-2.3333-2.345v-.105c-.0233-.7933-.525-1.4933-1.26-1.7733l-.0117-.0117c-.72331-.3266-1.56331-.175-2.12331.385l-.07.07v-.0116c-.92166.91-2.39166.91-3.30166 0-.01167-.0117-.01167-.0117-.01167-.0117l-.01167-.0117c-.92166-.9216-.92166-2.3916-.01166-3.3016 0-.0117 0-.0117 0-.0117l.07-.07h-.01167c.54833-.5717.7-1.4117.385-2.1233l-.01167-.0117c-.30333-.7117-1.00333-1.1667-1.76166-1.1667h-.21-.01167c-1.295-.0116-2.33333-1.05-2.33333-2.345-.011671-1.295 1.03833-2.345 2.32166-2.345h.105-.01166c.78166-.0233 1.48166-.525 1.76166-1.2716h-.01166c.315-.72338.16333-1.56338-.385-2.12338l-.07-.07-.01167-.01166c-.92167-.92167-.92167-2.39167-.01167-3.30167 0-.01167 0-.01167 0-.01167v-.01166c.91-.92167 2.38-.92167 3.29-.01167l.07.07c.56.54833 1.4.7 2.12331.37333h.0817-.0117c.7-.30333 1.155-1.00333 1.1667-1.76166v-.21c-.0117-1.295 1.0383-2.345003 2.3217-2.345003h-.0117c1.2833-.011666 2.3333 1.038333 2.3333 2.321663v.105l-.0116-.01166c0 .75833.455 1.45833 1.155 1.76166.7116.315 1.5516.16334 2.1233-.39666l.07-.07v-.01167c.91-.92167 2.38-.92167 3.29-.01167s.91 2.38 0 3.29c-.0117 0-.0117 0-.0117 0l-.07.07h-.0116c-.56.56-.7117 1.4-.385 2.12338v.0933l-.0117-.0117c.2917.7.9917 1.155 1.7617 1.1667h.1983-.0117c1.2834-.0117 2.3334 1.0383 2.3334 2.3217 0 1.2833-1.05 2.3333-2.3334 2.3333h-.105v-.0012c-.77 0-1.47.455-1.7616 1.1667z"/></g></svg>