<svg width="86" height="41" viewBox="0 0 86 41" fill="none" xmlns="http://www.w3.org/2000/svg">
<path fill-rule="evenodd" clip-rule="evenodd" d="M5.42092 5H17.1689L16.8688 6.24381C16.1542 6.50115 15.4253 6.72989 14.6821 6.93005C13.9675 7.10161 13.2529 7.23028 12.5383 7.31606L9.1831 24.331C8.82857 24.5274 8.45259 24.7699 8.05922 25.0689C6.85614 25.9832 5.59063 26.4575 4.5919 26.7034L8.42223 7.31606C7.07879 7.05872 5.97831 6.7013 5.12079 6.24381L5.42092 5ZM1.60989 30.2878C1.18091 30.4197 0.715738 30.5879 0.214379 30.7922L0 32.036H21.5665C21.738 31.4069 21.8953 30.6921 22.0382 29.8915C22.2097 29.0909 22.3526 28.276 22.4669 27.4468C22.6099 26.589 22.7242 25.7741 22.8099 25.0021C22.8957 24.2014 22.9672 23.5009 23.0243 22.9004H21.9095L17.9221 29.8057H10.777C10.7312 29.818 10.6841 29.8273 10.6358 29.8334C8.24745 29.9298 6.77035 29.8961 5.69118 29.8714C4.17039 29.8367 3.43983 29.82 2.06301 30.211C1.88143 30.2626 1.73166 30.2869 1.60989 30.2878ZM25.9848 13.0787L23.2407 12.7355V11.6633C23.3836 11.5489 23.6123 11.4059 23.9267 11.2344C24.2697 11.0628 24.6556 10.8913 25.0844 10.7197C25.5131 10.5482 25.9562 10.4052 26.4135 10.2908C26.8709 10.1478 27.2996 10.0764 27.6998 10.0764C28.3001 10.0764 28.7288 10.2336 28.9861 10.5482C29.2719 10.8341 29.4863 11.2201 29.6292 11.7062L33.1879 26.7176L33.3165 29.291H33.4023L34.3884 26.7605C34.76 25.9599 35.1316 25.0878 35.5032 24.1443C35.9034 23.1721 36.2892 22.1999 36.6608 21.2277C37.0324 20.2556 37.3754 19.2977 37.6899 18.3541C38.0043 17.4105 38.2758 16.5384 38.5045 15.7378C38.5045 15.4233 38.4616 15.0087 38.3759 14.494C38.3187 13.9793 38.2472 13.4647 38.1615 12.95C38.0757 12.4353 37.99 11.9635 37.9042 11.5346C37.8185 11.0771 37.747 10.7626 37.6899 10.591C38.09 10.4195 38.5188 10.2908 38.9761 10.205C39.4335 10.1193 39.8765 10.0764 40.3053 10.0764C41.1628 10.0764 41.9203 10.2479 42.5777 10.591C41.6916 14.1366 40.4768 17.6822 38.9333 21.2277C37.4183 24.7733 35.7319 28.3761 33.8739 32.036C32.3304 35.0383 30.7869 37.2829 29.2433 38.7697C27.6998 40.2566 25.9562 41 24.0125 41C23.5837 41 23.1692 40.9428 22.7691 40.8284C22.3975 40.7141 21.9973 40.5425 21.5686 40.3138C21.54 39.9992 21.5685 39.6418 21.6543 39.2415C21.7401 38.8412 21.883 38.4409 22.0831 38.0406C22.2546 37.6403 22.4832 37.2686 22.7691 36.9255C23.0835 36.5823 23.4265 36.3107 23.7981 36.1105L27.271 37.9119C27.4711 37.769 27.7284 37.5545 28.0428 37.2686C28.3572 37.0112 28.6859 36.6395 29.0289 36.1534C29.372 35.6959 29.715 35.1241 30.058 34.4378C30.401 33.7802 30.7297 32.9796 31.0441 32.036L25.9848 13.0787ZM58.7881 17.3676C58.6452 18.1111 58.4737 18.926 58.2736 19.8124L56.7301 26.9321L56.3013 28.905C56.1584 29.5341 56.0869 30.1202 56.0869 30.6635C56.0869 31.0638 56.2442 31.4355 56.5586 31.7787C56.873 32.1218 57.4447 32.2933 58.2736 32.2933C59.0454 32.2933 59.8314 32.1504 60.6318 31.8644C61.4607 31.5785 62.161 31.2068 62.7327 30.7493V29.6342H59.5599L62.0038 19.0832C62.2039 18.254 62.3754 17.3676 62.5183 16.4241C62.6612 15.4805 62.7327 14.6942 62.7327 14.0651C62.7327 12.9214 62.4469 11.9778 61.8752 11.2344C61.3321 10.4624 60.4603 10.0764 59.2598 10.0764C58.3736 10.0764 57.5018 10.2908 56.6443 10.7197C55.7868 11.12 54.9579 11.6919 54.1575 12.4353C53.3858 13.1501 52.6426 14.0079 51.928 15.0087C51.242 15.9809 50.6274 17.0388 50.0843 18.1826H49.8699L51.4992 10.591L50.6417 10.0764C50.2129 10.0764 49.7413 10.1193 49.2268 10.205C48.7409 10.2908 48.2264 10.4052 47.6833 10.5482C47.1688 10.6911 46.6543 10.8627 46.1397 11.0628C45.6538 11.2344 45.2108 11.4202 44.8106 11.6204L44.7248 12.6926L47.3403 13.0787L43.5672 32.036H47.1688L49.4412 21.0991C49.727 20.47 50.1415 19.6837 50.6846 18.7401C51.2563 17.768 51.8851 16.8387 52.5711 15.9523C53.2571 15.0659 54.0003 14.3082 54.8007 13.6791C55.601 13.0501 56.3871 12.7355 57.1588 12.7355C57.8163 12.7355 58.2879 12.9643 58.5737 13.4218C58.8882 13.8793 59.0454 14.4368 59.0454 15.0945C59.0454 15.8379 58.9596 16.5956 58.7881 17.3676ZM73.9986 22.9004C73.6842 23.2436 73.3126 23.6153 72.8839 24.0156C72.4837 24.4159 72.0835 24.8305 71.6834 25.2594C71.2832 25.6883 70.9116 26.1172 70.5686 26.5461C70.2256 26.975 69.954 27.3753 69.7539 27.747C69.6968 27.9472 69.6539 28.2331 69.6253 28.6048C69.6253 28.9765 69.611 29.3768 69.5824 29.8057V30.9638C69.5824 31.3069 69.5967 31.5642 69.6253 31.7358C69.1394 31.9359 68.6392 32.0789 68.1247 32.1647C67.6387 32.2504 67.1671 32.2933 66.7098 32.2933C65.7665 32.2933 64.9804 32.1075 64.3516 31.7358C64.6088 30.878 65.1376 29.9201 65.938 28.8621C66.7383 27.8042 67.6244 26.7748 68.5963 25.7741C69.1975 25.155 69.7877 24.5742 70.367 24.0318C70.4829 23.9857 70.6081 23.9048 70.7437 23.7844C71.4127 23.1897 72.0632 22.7744 72.7713 22.3222C74.1906 21.416 75.8415 20.3619 78.3374 17.4191C78.4045 17.3493 78.4588 17.2746 78.5012 17.1954C79.3013 16.3665 79.9013 15.5804 80.3014 14.8371C80.33 14.637 80.3443 14.3511 80.3443 13.9793C80.3443 13.6076 80.33 13.2216 80.3014 12.8213C80.2728 12.3924 80.2442 12.0064 80.2156 11.6633C80.1871 11.2916 80.1585 11.0199 80.1299 10.8484C80.6158 10.6768 81.0874 10.5482 81.5448 10.4624C82.0307 10.348 82.5166 10.2908 83.0026 10.2908C83.9173 10.2908 84.7176 10.4767 85.4036 10.8484C85.2321 11.4202 84.9463 12.035 84.5461 12.6926C84.1459 13.3503 83.6743 14.0079 83.1312 14.6656C82.5881 15.3232 82.0021 15.9809 81.3733 16.6385C80.773 17.2676 80.1871 17.868 79.6154 18.4399C79.0437 18.9832 78.5006 19.4835 77.9861 19.941C77.5002 20.3699 77.1143 20.7131 76.8285 20.9704L79.9155 29.3339L82.7024 29.6771V30.7493C82.5309 30.8637 82.2737 31.0066 81.9307 31.1782C81.6163 31.3498 81.259 31.5213 80.8588 31.6929C80.4872 31.8644 80.0727 32.0074 79.6154 32.1218C79.1866 32.2362 78.7864 32.2933 78.4149 32.2933C77.8146 32.2933 77.3573 32.1361 77.0428 31.8215C76.7284 31.507 76.4997 31.121 76.3568 30.6635L73.9986 22.9004ZM74.2559 11.9635L75.3105 15.7098C75.0685 16.3039 74.6587 16.8955 73.9974 17.419C73.455 17.8484 72.9263 18.1543 72.428 18.3691L70.5686 13.336L67.8245 12.9929V11.9206C67.996 11.8063 68.239 11.6633 68.5534 11.4917C68.8964 11.2916 69.268 11.1057 69.6682 10.9342C70.0969 10.7626 70.5257 10.6196 70.9545 10.5053C71.3832 10.3909 71.7977 10.3337 72.1979 10.3337C72.8267 10.3337 73.284 10.5053 73.5699 10.8484C73.8557 11.1629 74.0844 11.5346 74.2559 11.9635Z" fill="#1F2022"/>
</svg>
