<svg width="73" height="52" viewBox="0 0 73 52" fill="none" xmlns="http://www.w3.org/2000/svg">
<path d="M72.0966 6.00419C67.4533 7.72885 63.3406 10.6475 59.7586 14.7602C56.3093 18.8728 54.2529 23.3835 53.5896 28.2922C54.6509 29.6188 56.3093 30.8792 58.5646 32.0732C60.9526 33.1345 62.8763 33.9968 64.3356 34.6602C64.4683 36.7828 64.0039 38.8392 62.9426 40.8292C61.8813 42.8192 60.5546 44.6102 58.9626 46.2022C57.3706 47.7942 55.6459 49.1208 53.7886 50.1822C52.0639 51.1108 50.6046 51.5752 49.4106 51.5752C45.6959 51.1772 42.5783 49.9169 40.0576 47.7942C37.5369 45.5389 36.2766 42.2885 36.2766 38.0432C36.2766 33.7979 37.2053 29.6189 39.0626 25.5062C41.0526 21.3935 43.5733 17.6788 46.6246 14.3622C49.8086 10.9128 53.3906 7.99418 57.3706 5.60618C61.3506 3.08551 65.3969 1.22818 69.5096 0.0341797L72.0966 6.00419ZM35.8786 6.00419C31.2353 7.72885 27.1226 10.6475 23.5406 14.7602C20.0913 18.8728 18.0349 23.3835 17.3716 28.2922C18.4329 29.6188 20.0913 30.8792 22.3466 32.0732C24.7346 33.1345 26.6583 33.9968 28.1176 34.6602C28.2503 36.7828 27.7859 38.8392 26.7246 40.8292C25.6633 42.8192 24.3366 44.6102 22.7446 46.2022C21.1526 47.7942 19.4279 49.1208 17.5706 50.1822C15.8459 51.1108 14.3866 51.5752 13.1926 51.5752C9.47793 51.1772 6.36026 49.9169 3.8396 47.7942C1.31893 45.5389 0.0585938 42.2885 0.0585938 38.0432C0.0585938 33.7979 0.98726 29.6189 2.84459 25.5062C4.83459 21.3935 7.35526 17.6788 10.4066 14.3622C13.5906 10.9128 17.1726 7.99418 21.1526 5.60618C25.1326 3.08551 29.1789 1.22818 33.2916 0.0341797L35.8786 6.00419Z" fill="#8979EC"/>
</svg>
