<svg id="Layer_1" data-name="Layer 1" xmlns="http://www.w3.org/2000/svg" viewBox="0 0 2694.19 510.88"><defs><style>.cls-1{fill:#fff}</style></defs><path class="cls-1" d="M37.21 22.39s25.34 158.62 363.7 327.05c0 0-29.67-74.87-97.82-127.46 0 0 .36 26.52-5.04 29.91-5.41 3.4 1.72-23.01-15.24-37.2C265.85 200.49 84.19 78 37.22 22.38z"/><path class="cls-1" d="M35.54 22s23.85 102.18 167.55 222.69c0 0-51.11-10.1-95.35-34.86 0 0 32.4 36.32 99.82 38.04 0 0 91.05 70 191.48 119.71 0 0-270.4-23.86-306.35-167.17 0 0-62.04-41.06-61.78-99.69 0 0 14.09 8.77 16.75 6.53 0 0-13.59-10.42-17.16-20.59-3.59-10.17.97-56.67 5.04-64.66z"/><path class="cls-1" d="M403.11 370.03s-74.03.68-104.86-14.57c0 0 35.13 38.42 98.5 30.45 0 0 7.09-.23 4.51 4.71-2.58 4.95-23.43 23.04-40.92 16.46 0 0 8.98 17.92 70.38-1.58 0 0 36.18-8.43.09 8.44 0 0-28.03 12.04 7.6 4.27 35.64-7.79 59.77.11 59.77.11s-93.56-47.18-95.06-48.29zM388.51 307.53s3.79-9.89 33.22 25.15c35.24 41.96 23.69 10.36 15.18-2.04-8.53-12.41 2.14-5.51 2.14-5.51 20.47 11.39 29.26 32.39 30.02 34.47.75 2.08 4.22 25.23 4.22 25.23l-69.31-33.92c1.07-14.92-15.23-44.39-15.23-44.39"/><path class="cls-1" d="M269.64 289.83s135.88 89.23 312.44 161.73c0 0 3.94-14.65-21.62-25.21C401.81 360.76 278.94 284.5 278.94 284.5c-1.21-.75-2.43-1.49-3.64-2.23M269.64 289.83C152.1 209.52 115.5 152.54 115.5 152.54s45.06 55.06 159.81 129.71M536.61 61.64h67.05v9.51c-2.84 1.84-6.09 3.38-9.76 4.63s-7.01 2.13-10.01 2.63l-47.54 60.3c3.83 5.34 8.34 11.38 13.51 18.14 5.17 6.75 10.67 13.76 16.51 21.02 5.84 7.26 11.84 14.6 18.01 22.02 6.17 7.42 12.17 14.47 18.01 21.14l12.01 7.26v8.51h-43.53l-10.01-7.01c-4-5-8.22-10.55-12.63-16.64a496.71 496.71 0 01-13.13-19.01c-4.34-6.59-8.59-13.22-12.76-19.89a657.69 657.69 0 01-11.76-19.52h-10.76v65.3c3.67.67 7 1.67 10.01 3 3 1.34 5.59 2.75 7.76 4.25v9.51h-75.81v-9.51c3.33-1.67 6.75-3.13 10.26-4.38s6.92-2.21 10.26-2.88V78.4a50.63 50.63 0 01-11.13-2.75c-3.59-1.33-6.72-2.83-9.38-4.5v-9.51h75.81v9.51c-2.17 1.34-4.8 2.67-7.88 4-3.09 1.34-6.38 2.42-9.88 3.25v63.55l14.76-3.5 40.28-60.05c-3.34-.67-6.63-1.71-9.88-3.13-3.25-1.42-6.05-2.79-8.38-4.13v-9.51zM691.23 236.77h-69.05v-9.51a52.86 52.86 0 017.76-3.39c2.67-.92 5.59-1.8 8.76-2.64V129.2l-16.51-2.01v-9.51c2.5-1 5.63-2 9.38-3s7.71-1.88 11.88-2.63c4.17-.75 8.26-1.42 12.26-2 4-.58 7.51-1.04 10.51-1.38h8.51v112.58c3.33.84 6.34 1.71 9.01 2.63 2.67.92 5.17 2.05 7.51 3.38v9.51zM634.94 70.64c0-5.84 1.98-10.42 5.93-13.76 3.96-3.33 9.07-5 15.33-5s11.38 1.67 15.33 5c3.96 3.34 5.93 7.92 5.93 13.76s-1.98 10.18-5.93 13.51c-3.96 3.34-9.07 5-15.33 5s-11.38-1.67-15.33-5c-3.96-3.33-5.93-7.84-5.93-13.51zM790.56 212c-.84 3.67-2.34 7.17-4.5 10.51-2.17 3.34-4.75 6.3-7.76 8.88-3 2.59-6.42 4.63-10.26 6.13s-7.92 2.25-12.26 2.25c-16.51 0-29.07-5.21-37.65-15.64-8.59-10.42-12.89-26.4-12.89-47.91 0-11.01 1.5-20.64 4.5-28.9 3-8.26 7.21-15.22 12.63-20.89 5.42-5.67 11.97-9.92 19.64-12.76 7.67-2.83 16.18-4.25 25.52-4.25 3 0 5.54.09 7.63.25 2.08.17 4 .38 5.75.63s3.42.67 5 1.25c1.58.59 3.38 1.21 5.38 1.88V69.16l-19.01-2.01v-9.51c2.33-1 5.54-1.92 9.63-2.75 4.08-.83 8.38-1.63 12.88-2.38s8.92-1.46 13.26-2.13c4.33-.67 7.92-1.25 10.76-1.75h8.51v170.38l16.51 2v8.76c-2.34 1.17-5.34 2.25-9.01 3.25s-7.51 1.92-11.51 2.75c-4 .84-7.88 1.54-11.63 2.13-3.75.58-6.88 1.04-9.38 1.38h-8.51l-2.25-27.27h-1zm-22.77 7.76c5.84 0 10.76-1.83 14.76-5.5s6.92-9.92 8.76-18.76v-67.3c-2.17-1.33-4.88-2.42-8.13-3.25-3.25-.83-7.3-1.25-12.13-1.25-9.68 0-16.6 4.38-20.77 13.14-4.17 8.76-6.25 21.48-6.25 38.15 0 13.51 1.83 24.36 5.5 32.53 3.67 8.17 9.76 12.26 18.26 12.26zM919.41 209.5c0-4.33-1.54-8.09-4.63-11.26s-6.92-6.09-11.51-8.76-9.59-5.34-15.01-8.01-10.43-5.79-15.01-9.38a50.092 50.092 0 01-11.51-12.63c-3.09-4.84-4.63-10.76-4.63-17.76 0-5 1.17-9.55 3.5-13.64 2.33-4.08 5.5-7.54 9.51-10.38 4-2.83 8.8-5.04 14.39-6.63 5.59-1.58 11.63-2.38 18.14-2.38 9.01 0 17.39.71 25.14 2.13 7.76 1.42 14.55 3.38 20.39 5.88-.67 5.34-2 11.05-4 17.14s-3.92 11.63-5.75 16.64h-8.51l-10.51-25.52c-2-.83-4.09-1.38-6.25-1.63-2.17-.25-4.59-.38-7.26-.38-5 0-8.8 1.46-11.38 4.38-2.59 2.92-3.88 6.22-3.88 9.88 0 4.17 1.54 7.8 4.63 10.88 3.08 3.09 6.92 5.97 11.51 8.63 4.58 2.67 9.59 5.34 15.01 8.01s10.42 5.72 15.01 9.13c4.58 3.42 8.42 7.47 11.51 12.13 3.08 4.67 4.63 10.26 4.63 16.76 0 11.51-4.67 20.56-14.01 27.15s-21.85 9.88-37.53 9.88c-8.01 0-16.26-.84-24.77-2.5-8.51-1.67-15.85-4-22.02-7 .33-6 1.75-12.09 4.25-18.26 2.5-6.17 5.17-11.67 8.01-16.51h8.51l12.26 27.27c1.83 1.34 3.88 2.13 6.13 2.38s4.38.38 6.38.38c4.84 0 9.26-1.42 13.26-4.25s6-6.76 6-11.76zM1032.99 61.64h82.06v9.51c-3.5 1.84-7.38 3.38-11.63 4.63-4.25 1.25-8.38 2.13-12.38 2.63v142.1h48.29l16.76-44.79h10.26c.66 3.84 1.29 8.34 1.88 13.51.58 5.17 1.04 10.59 1.38 16.26.33 5.67.58 11.26.75 16.76.16 5.5.16 10.34 0 14.51H1033v-9.51c3.83-2 7.46-3.58 10.88-4.75 3.42-1.17 6.63-2 9.63-2.5V78.4c-8.17-1.33-15.01-3.75-20.52-7.26v-9.51zM1250.66 236.77h-69.05v-9.51a52.86 52.86 0 017.76-3.39c2.67-.92 5.59-1.8 8.76-2.64V129.2l-16.51-2.01v-9.51c2.5-1 5.63-2 9.38-3s7.71-1.88 11.88-2.63c4.17-.75 8.26-1.42 12.26-2 4-.58 7.51-1.04 10.51-1.38h8.51v112.58c3.33.84 6.34 1.71 9.01 2.63 2.67.92 5.17 2.05 7.51 3.38v9.51zm-56.29-166.13c0-5.84 1.98-10.42 5.93-13.76 3.96-3.33 9.07-5 15.33-5s11.38 1.67 15.33 5c3.96 3.34 5.93 7.92 5.93 13.76s-1.98 10.18-5.93 13.51c-3.96 3.34-9.07 5-15.33 5s-11.38-1.67-15.33-5c-3.96-3.33-5.93-7.84-5.93-13.51zM1337.22 48.63c6.84 0 12.97.63 18.39 1.88s9.55 2.46 12.38 3.63c-.5 5.5-1.59 11.18-3.25 17.01-1.67 5.84-3.17 10.68-4.5 14.51h-8.51l-11.01-23.77c-4.34 0-7.97.46-10.88 1.38-2.92.92-5.25 2.71-7 5.38s-3.05 6.47-3.88 11.38c-.84 4.92-1.25 11.3-1.25 19.14v12.51h26.52v16.26h-26.52v93.34c8.67 1 16.68 2.99 24.02 5.99v9.51h-76.56v-9.51c5.17-2.99 10.67-4.99 16.51-5.99v-93.34h-19.01v-10.03c5.84-3.77 12.17-6.6 19.01-8.49v-8.76c0-10.34 1.46-18.89 4.38-25.65 2.92-6.75 6.88-12.09 11.88-16.01 5-3.92 10.88-6.63 17.64-8.13s13.97-2.25 21.64-2.25zM1467.82 215.76c-1.34 2.84-3.46 5.72-6.38 8.63-2.92 2.92-6.5 5.5-10.76 7.76-4.25 2.25-9.18 4.09-14.76 5.5-5.59 1.42-11.63 2.13-18.14 2.13-10.34 0-19.51-1.54-27.52-4.63-8.01-3.08-14.68-7.51-20.02-13.26s-9.38-12.63-12.13-20.64-4.13-17.01-4.13-27.02c0-21.35 5.59-37.61 16.76-48.79s26.68-16.76 46.54-16.76c8.51 0 16.47 1.17 23.89 3.5 7.42 2.34 13.59 6.17 18.51 11.51 4.92 5.34 8.34 12.35 10.26 21.02s1.79 19.27-.38 31.78h-76.81c.16 13.18 3.54 23.69 10.13 31.52 6.59 7.84 16.3 11.76 29.15 11.76 5.5 0 11.22-.83 17.14-2.5s10.55-3.83 13.89-6.5l4.75 5zm-51.68-92.82c-3.32 0-6.26.59-8.83 1.75-2.57 1.17-4.81 3.3-6.72 6.38-1.91 3.09-3.44 7.26-4.6 12.51-1.16 5.25-1.99 11.88-2.49 19.89h40.03c1.17-13.01.42-23.02-2.23-30.02-2.66-7-7.71-10.51-15.17-10.51zM1683.24 184.23h10.26c.66 2.67 1.29 5.88 1.88 9.63.58 3.75 1.08 7.76 1.5 12.01.42 4.25.71 8.47.88 12.63.16 4.17.25 7.92.25 11.26-5.84 3.67-13.13 6.25-21.89 7.76-8.76 1.5-17.73 2.25-26.9 2.25-13.85 0-26.4-1.71-37.65-5.13-11.26-3.42-20.85-8.84-28.77-16.26-7.92-7.42-14.05-16.84-18.39-28.27-4.34-11.42-6.5-25.15-6.5-41.16s2.38-29.48 7.13-40.91c4.75-11.42 11.13-20.81 19.14-28.15s17.3-12.72 27.9-16.14c10.59-3.42 21.72-5.13 33.4-5.13 11.01 0 20.97.79 29.9 2.38 8.92 1.59 16.22 3.71 21.89 6.38 0 2.67-.13 6.09-.38 10.26s-.67 8.55-1.25 13.14c-.59 4.59-1.25 9.09-2 13.51s-1.46 8.13-2.13 11.13H1681l-13.76-37.78c-1.5-.83-3.92-1.5-7.25-2-3.34-.5-6.76-.75-10.26-.75-6.84 0-13.26 1.38-19.26 4.13-6 2.75-11.34 7.13-16.01 13.13-4.67 6-8.34 13.72-11.01 23.14s-4 20.73-4 33.9c0 23.85 4.75 42.2 14.26 55.04 9.51 12.85 22.43 19.26 38.78 19.26 4.67 0 8.63-.38 11.88-1.13 3.25-.75 5.46-1.79 6.63-3.13l12.26-35.03zM1713.76 174.22c0-10.17 1.54-19.3 4.63-27.4 3.08-8.09 7.51-14.97 13.26-20.64s12.72-10.01 20.89-13.01 17.43-4.5 27.77-4.5c11.67 0 21.72 1.63 30.15 4.88 8.42 3.25 15.34 7.76 20.77 13.51 5.42 5.75 9.38 12.68 11.88 20.77s3.75 16.89 3.75 26.4c0 10.18-1.5 19.31-4.5 27.4s-7.38 14.97-13.13 20.64c-5.75 5.67-12.76 10.01-21.02 13.01s-17.56 4.5-27.9 4.5c-11.35 0-21.18-1.63-29.52-4.88s-15.26-7.76-20.77-13.51c-5.5-5.75-9.59-12.67-12.26-20.77-2.67-8.09-4-16.89-4-26.4zm38.78 0c0 7.51.46 14.39 1.38 20.64.92 6.25 2.54 11.55 4.88 15.89 2.33 4.34 5.5 7.72 9.51 10.13 4 2.42 9.17 3.63 15.51 3.63 3.67 0 7.01-.88 10.01-2.63s5.59-4.59 7.76-8.51 3.79-9.09 4.88-15.51c1.08-6.42 1.63-14.3 1.63-23.64 0-7.67-.46-14.59-1.38-20.77-.92-6.17-2.5-11.42-4.75-15.76s-5.3-7.71-9.13-10.13c-3.84-2.42-8.67-3.63-14.51-3.63-4.34 0-8.09.88-11.26 2.63s-5.84 4.59-8.01 8.51-3.8 9.09-4.88 15.51c-1.09 6.42-1.63 14.3-1.63 23.64zM1972.21 200.5c0 3.67.04 6.84.12 9.51.08 2.67.29 5.5.63 8.51l17.26 2.5v8.76c-2 1-4.71 2-8.13 3-3.42 1-7 1.96-10.76 2.88-3.75.92-7.47 1.67-11.13 2.25-3.67.58-6.92 1.04-9.76 1.38h-8.51c-1.67-3.83-2.67-7.67-3-11.51-.34-3.83-.59-8.51-.75-14.01h-1.25c-.84 3.34-2.25 6.55-4.25 9.63-2 3.09-4.55 5.84-7.63 8.26-3.09 2.42-6.72 4.38-10.88 5.88-4.17 1.5-8.84 2.25-14.01 2.25-5.5 0-10.59-.84-15.26-2.5-4.67-1.67-8.76-4-12.26-7s-6.25-6.63-8.26-10.88c-2-4.25-3-9.05-3-14.39 0-7.51 1.42-13.67 4.25-18.51 2.83-4.84 7.29-8.8 13.39-11.88 6.09-3.08 13.92-5.38 23.52-6.88 9.59-1.5 21.22-2.58 34.9-3.25 1.33-14.34.75-24.85-1.75-31.52-2.5-6.67-7.92-10.01-16.26-10.01-5.17 0-9.93.84-14.26 2.5l-11.76 30.02h-11.01c-1.34-2-2.63-4.29-3.88-6.88a92.78 92.78 0 01-3.5-8.26c-1.09-2.92-2-5.88-2.75-8.88-.75-3-1.29-5.92-1.63-8.76 6.34-4.34 14.51-7.76 24.52-10.26s20.6-3.75 31.78-3.75c9.51 0 17.26 1.04 23.27 3.13 6 2.09 10.71 4.92 14.14 8.51 3.42 3.59 5.79 7.8 7.13 12.63 1.33 4.84 2 10.01 2 15.51 0 10.01-.21 19.06-.62 27.15-.42 8.09-.63 16.39-.63 24.89zm-56.29 19.26c3.5 0 6.5-.66 9.01-2 2.5-1.33 4.63-2.92 6.38-4.75s3.08-3.83 4-6c.91-2.17 1.63-4.08 2.13-5.75v-25.02c-7.84.17-14.26.67-19.26 1.5-5 .84-8.92 2.21-11.76 4.13s-4.8 4.34-5.88 7.26c-1.09 2.92-1.63 6.47-1.63 10.63 0 6.34 1.5 11.26 4.5 14.76s7.17 5.25 12.51 5.25zM2108.07 216.51c-1.17 3.34-3.09 6.38-5.75 9.13-2.67 2.75-5.88 5.21-9.63 7.38-3.75 2.17-8.01 3.83-12.76 5s-9.72 1.75-14.89 1.75c-11.01 0-20.48-1.54-28.4-4.63-7.92-3.08-14.47-7.51-19.64-13.26s-9.01-12.67-11.51-20.77c-2.5-8.09-3.75-17.05-3.75-26.9 0-21.18 5.79-37.4 17.39-48.66 11.59-11.26 28.06-16.89 49.41-16.89 8.17 0 15.68.88 22.52 2.63s12.51 3.8 17.01 6.13c-.34 2.84-.79 5.97-1.38 9.38-.59 3.42-1.25 6.84-2 10.26s-1.63 6.75-2.63 10.01c-1 3.25-2 5.97-3 8.13h-12.26l-10.51-29.77c-1.17-.83-2.42-1.46-3.75-1.88-1.34-.41-3.34-.62-6-.62-4.34 0-8.09.79-11.26 2.38-3.17 1.59-5.88 4.3-8.13 8.13-2.25 3.84-3.92 8.92-5 15.26-1.09 6.34-1.63 14.18-1.63 23.52 0 6.84.75 13.14 2.25 18.89s3.79 10.76 6.88 15.01c3.08 4.25 6.96 7.59 11.63 10.01 4.67 2.42 10.17 3.63 16.51 3.63 5.84 0 10.92-.83 15.26-2.5s8.01-3.67 11.01-6l4 5.25zM2272.19 236.77h-66.3v-9.51c2-1.17 4.08-2.25 6.25-3.26 2.17-1 4.67-1.92 7.51-2.76v-50.67c0-14.38-1.38-24.96-4.13-31.73s-8.13-10.16-16.14-10.16c-6.67 0-12.35 2.3-17.01 6.9-4.67 4.6-8.01 9.91-10.01 15.93v69.73c2.67.67 5.04 1.42 7.13 2.26 2.08.84 4.29 2.09 6.63 3.76v9.51h-66.3v-9.51c5.17-2.67 10.67-4.68 16.51-6.02V69.15l-19.01-2.01v-9.51c2.5-1 5.71-2 9.63-3 3.92-1 8.04-1.88 12.38-2.63 4.34-.75 8.67-1.42 13.01-2 4.33-.58 8.17-1.04 11.51-1.38h8.51v88.32h.25c1.67-3.83 3.92-7.46 6.76-10.88 2.83-3.42 6.04-6.42 9.63-9.01a47.05 47.05 0 0111.63-6.13c4.17-1.5 8.59-2.25 13.26-2.25 6.67 0 12.63.8 17.89 2.38 5.25 1.59 9.63 4.39 13.13 8.4s6.17 9.4 8.01 16.17c1.83 6.77 2.75 15.34 2.75 25.7v59.93c2.83.67 5.67 1.42 8.51 2.25 2.83.84 5.5 2.09 8.01 3.76v9.51zM2352.01 236.77h-69.05v-9.51a52.86 52.86 0 017.76-3.39c2.67-.92 5.59-1.8 8.76-2.64V129.2l-16.51-2.01v-9.51c2.5-1 5.63-2 9.38-3s7.71-1.88 11.88-2.63c4.17-.75 8.26-1.42 12.26-2 4-.58 7.51-1.04 10.51-1.38h8.51v112.58c3.33.84 6.34 1.71 9.01 2.63 2.67.92 5.17 2.05 7.51 3.38v9.51zm-56.29-166.13c0-5.84 1.98-10.42 5.93-13.76 3.96-3.33 9.07-5 15.33-5s11.38 1.67 15.33 5c3.96 3.34 5.93 7.92 5.93 13.76s-1.98 10.18-5.93 13.51c-3.96 3.34-9.07 5-15.33 5s-11.38-1.67-15.33-5c-3.96-3.33-5.93-7.84-5.93-13.51zM2516.38 236.77h-66.3v-9.51c2.17-1.17 4.29-2.21 6.38-3.13 2.08-.92 4.54-1.88 7.38-2.88V162.3c0-10.53-1.5-18.77-4.5-24.71-3-5.93-8.34-8.91-16.01-8.91-6.34 0-11.8 2.05-16.39 6.15-4.59 4.1-8.05 9.66-10.38 16.68v69.73c2.67.67 5.04 1.47 7.13 2.38 2.08.92 4.29 2.13 6.63 3.64v9.51h-66.3v-9.51c4.17-2.18 9.67-4.19 16.51-6.04v-92.03l-16.51-2.01v-9.51c2.17-1 5-1.96 8.51-2.88 3.5-.92 7.29-1.79 11.38-2.63 4.08-.83 8.26-1.54 12.51-2.13 4.25-.58 8.13-1.04 11.63-1.38h8.51v25.77h.25c3.5-7.01 8.76-13.05 15.76-18.14s15.51-7.63 25.52-7.63c6.5 0 12.34.8 17.51 2.38 5.17 1.59 9.55 4.39 13.14 8.4 3.58 4.01 6.34 9.4 8.26 16.17 1.92 6.77 2.88 15.34 2.88 25.7v59.93c6.67 1.17 12.17 3.18 16.51 6.02v9.51zM2585.43 108.67c10.84 0 19.85 1.13 27.02 3.38 7.17 2.25 12.59 5.05 16.26 8.38 7.84-8.51 16.84-14.43 27.02-17.76 1.17.84 2.33 2.04 3.5 3.63 1.17 1.59 2.17 3.3 3 5.13.83 1.84 1.5 3.67 2 5.5.5 1.84.75 3.34.75 4.5l-3.25 6h-26.27c1.83 2.34 3.54 5.38 5.13 9.13 1.58 3.75 2.38 8.22 2.38 13.38 0 5.5-1.17 10.68-3.5 15.51-2.34 4.84-5.88 9.13-10.63 12.88s-10.76 6.72-18.01 8.88c-7.25 2.17-15.72 3.25-25.39 3.25-2.84 0-5.38-.04-7.63-.12-2.25-.08-4.21-.29-5.88-.63-.67 1-1.38 2.21-2.13 3.63s-1.12 2.79-1.12 4.13c0 2.84 2 5.09 6 6.75 4 1.67 9.09 3.17 15.26 4.5 6.17 1.34 12.8 2.84 19.89 4.5 7.09 1.67 13.72 3.88 19.89 6.63s11.34 6.34 15.51 10.76 6.34 10.13 6.5 17.14c.16 6.67-1.5 12.59-5 17.76-3.5 5.17-8.3 9.55-14.39 13.14-6.09 3.58-13.26 6.34-21.52 8.26s-17.06 2.88-26.4 2.88c-11.01 0-20.39-.88-28.15-2.63-7.76-1.75-14.05-4.13-18.89-7.13s-8.38-6.42-10.63-10.26-3.38-7.84-3.38-12.01c0-4.67.92-8.67 2.75-12.01s4.42-6.25 7.76-8.76c3.33-2.5 7.21-4.58 11.63-6.25 4.42-1.67 9.3-3.17 14.64-4.5-2.5-.67-4.92-1.5-7.26-2.5s-4.42-2.21-6.25-3.63c-1.84-1.42-3.34-3.08-4.5-5-1.17-1.92-1.75-4.13-1.75-6.63 0-2.17.66-4.29 2-6.38 1.33-2.08 3.08-4 5.25-5.75s4.5-3.33 7-4.75 5-2.63 7.51-3.63c-10.51-2.33-18.85-6.88-25.02-13.64-6.17-6.75-9.26-15.39-9.26-25.9 0-12.51 5.17-22.27 15.51-29.27 10.34-7.01 24.35-10.51 42.03-10.51zm31.52 147.12c0-4.5-1.38-8.13-4.13-10.88s-6.3-5-10.63-6.76c-4.34-1.75-9.22-3.25-14.64-4.5s-10.8-2.71-16.14-4.38c-4.34 3.34-7.42 6.67-9.26 10.01-1.84 3.33-2.75 7.34-2.75 12.01 0 7.67 2.63 13.64 7.88 17.89s12.64 6.38 22.14 6.38 16.26-1.96 20.77-5.88c4.5-3.92 6.75-8.55 6.75-13.89zm-53.04-106.08c0 8.67 1.46 15.26 4.38 19.77 2.92 4.5 8.63 6.75 17.14 6.75s13.8-2.29 16.89-6.88c3.08-4.59 4.63-11.13 4.63-19.64 0-9.01-1.59-15.72-4.75-20.14-3.17-4.42-8.76-6.63-16.76-6.63s-14.01 2.17-17.01 6.5c-3 4.34-4.5 11.09-4.5 20.27zM711.99 355.4h-30.96v96.15h-13.5V355.4h-30.96v-10.51h75.42v10.51zM800.4 421.69h-35.53l-10.05 29.87H741.5l37.98-108.34h7.38l37.98 108.34h-14.22l-10.23-29.87zm-31.94-9.9h28.71l-10.94-33.12-3.32-16.1h-.37l-3.49 16.41-10.59 32.81zM893.25 402.18h-6.48v49.37h-13.5V344.88h13.5v49.68l6.3-2.13 32.76-47.54h15.48l-32.94 46.02-6.3 4.88 7.38 6.1 36.54 49.68h-17.1l-35.64-49.37zM998.01 344.89h55.98v10.51h-42.48v36.11h39.06v10.51h-39.06v39.01h43.38v10.51h-56.88V344.87zM1185.38 344.89h55.98v10.51h-42.48v37.64h39.6v10.51h-39.6v48h-13.5V344.88zM1356.38 451.55h-60.66V344.88h13.5v96.15h47.16v10.51zM1409.12 344.89h13.5v106.67h-13.5V344.89zM1519.1 398.37h34.74v46.93c-3.36 2.64-7.68 4.65-12.96 6.02a63.542 63.542 0 01-16.02 2.06c-6.72 0-12.81-1.07-18.27-3.2-5.46-2.13-10.11-5.46-13.95-9.98-3.84-4.52-6.81-10.23-8.91-17.14-2.1-6.91-3.15-15.19-3.15-24.84s1.26-18.41 3.78-25.37c2.52-6.96 5.91-12.65 10.17-17.07s9.12-7.64 14.58-9.68c5.46-2.03 11.07-3.05 16.83-3.05s10.59.33 14.49.99c3.9.66 7.23 1.55 9.99 2.67l-3.24 10.36c-2.4-1.12-5.25-1.98-8.55-2.59-3.3-.61-7.11-.92-11.43-.92s-8.22.76-12.06 2.29c-3.84 1.52-7.29 4.04-10.35 7.54-3.06 3.5-5.49 8.1-7.29 13.79-1.8 5.69-2.7 12.7-2.7 21.03 0 15.24 2.85 26.49 8.55 33.75 5.7 7.26 13.53 10.9 23.49 10.9 6.24 0 11.4-1.26 15.48-3.78v-30.81l-23.22-2.99v-6.92zM1668.86 402.33h-46.44v49.22h-13.5V344.88h13.5v46.93h46.44v-46.93h13.5v106.67h-13.5v-49.22zM1807.82 355.4h-30.96v96.15h-13.5V355.4h-30.96v-10.51h75.42v10.51z"/></svg>